<!DOCTYPE svg PUBLIC "-//W3C//DTD SVG 1.1//EN" "http://www.w3.org/Graphics/SVG/1.1/DTD/svg11.dtd">
<svg version="1.1" id="planets" xmlns="http://www.w3.org/2000/svg" xmlns:xlink="http://www.w3.org/1999/xlink" x="0px" y="0px"
	 width="290.396px" height="300px" viewBox="0 0 290.396 300" enable-background="new 0 0 290.396 300" xml:space="preserve">
<filter  id="AI_GaussianBlur_4">
	<feGaussianBlur  stdDeviation="3"></feGaussianBlur>
</filter>
<g id="Layer_1">
	<g id="bkgrnd">
		<rect width="290.396" height="300"/>
	</g>
	<g id="planet">
		<g>
			<g>
				<g>
					<path fill="#BCBCBC" d="M134.637,49.577l0.013,0.034l0.003,0.008v0.001l-0.091,0.123v0l0,0l0.002,0.001l0.003,0.002
						l0.011,0.007l0.041,0.025c0.023,0.012,0.043,0.022,0.063,0.032c0.035,0.014,0.057,0.015,0.071,0.011
						c0.029-0.009,0.031-0.04,0.057-0.032C134.597,49.137,134.615,49.629,134.637,49.577z"/>
					<path fill="#BCBCBC" d="M130.689,44.962l0.207-0.204c0.009-0.027-0.987,0.084-0.994,0.111c0,0,0.199,0.017,0.397,0.035
						C130.495,44.933,130.689,44.962,130.689,44.962z"/>
					<path fill="#BCBCBC" d="M126.191,40.741c-0.101,1.42,0.358,1.62,0.898,1.789c0.135,0.041,0.274,0.082,0.413,0.124l0.026,0.008
						l0.003,0.001c-0.073,0.228-0.02,0.063-0.035,0.114v0h0.002l0.008-0.001l0.015-0.001l0.06-0.007l0.118-0.011
						c0.083-0.018,0.145,0.027,0.214,0.045c0.271,0.093,0.506,0.284,0.654,0.611l-0.003,0.487c0,0,0.211-0.248,0.422-0.496
						c0.209-0.231,0.418-0.462,0.418-0.462c-0.258-0.193-0.554-0.359-0.863-0.505c-0.154-0.073-0.315-0.119-0.475-0.176
						c-0.077-0.034-0.16-0.052-0.254-0.036l-0.133,0.007l-0.009,0c0.085-0.264,0.023-0.074,0.042-0.132l-0.001,0L127.71,42.1
						l-0.003-0.002l-0.015-0.007l-0.027-0.015l-0.056-0.03C127.016,41.729,126.464,41.426,126.191,40.741z"/>
					<path fill="#BCBCBC" d="M124.361,34.253c0.01,1.048-0.891,0.688,0.716,0.497c-0.053-0.126-0.062-0.194-0.088-0.285
						C124.851,34.446,124.665,34.4,124.361,34.253z"/>
					<path fill="#BCBCBC" d="M124.989,34.465C125.668,34.552,124.729,33.525,124.989,34.465L124.989,34.465z"/>
					<path fill="#BCBCBC" d="M121.87,34.429l0.999-0.753c-0.08-0.626-0.841-0.897-0.484-1.28
						C121.403,32.733,121.521,33.364,121.87,34.429z"/>
					<path fill="#BCBCBC" d="M120.807,36.197l0.48-0.313C121.249,35.621,121.144,35.514,120.807,36.197z"/>
					<path fill="#BCBCBC" d="M122.326,35.232l-1.039,0.652c0.062,0.44-0.056,1.284,0.462-0.222
						C121.56,36.42,121.847,35.709,122.326,35.232z"/>
					<path fill="#BCBCBC" d="M122.78,35.716c0.374,0.639,0.892,1.112-0.082,1.848C124.312,37.547,124.464,35.678,122.78,35.716z"/>
					<path fill="#BCBCBC" d="M125.273,43.072l0.309,0.997c0,0,0.161-0.131,0.323-0.262c0.16-0.119,0.321-0.239,0.321-0.239
						C125.908,43.827,125.447,42.292,125.273,43.072z"/>
					<path fill="#BCBCBC" d="M116.689,32.497c-0.086,0.554,0.196,1.503,0.21,2.223l0.661-0.603
						C117.271,33.715,116.684,33.323,116.689,32.497z"/>
					<path fill="#BCBCBC" d="M116.899,34.72c0,0-0.248,0.218-0.484,0.458c-0.236,0.236-0.473,0.471-0.473,0.471
						C116.729,35.771,116.911,35.344,116.899,34.72z"/>
					<path fill="#BCBCBC" d="M120.277,39.07c0,0,0.427-0.443,0.853-0.885c0.439-0.438,0.879-0.876,0.879-0.876
						s-0.51,0.434-1.02,0.867c-0.493,0.439-0.987,0.878-0.987,0.878L120.277,39.07z"/>
					<path fill="#BCBCBC" d="M113.129,32.405l0.545-1.293c0,0-0.243,0.489-0.485,0.977c-0.233,0.494-0.467,0.987-0.467,0.987
						L113.129,32.405z"/>
					<path fill="#BCBCBC" d="M110.81,32.714c0.365-1.074-0.579-1.769-0.183-2.438c-0.65,0.208-1.153,1.176-1.597,2.023
						C109.52,31.808,110.076,31.866,110.81,32.714z"/>
					<path fill="#BCBCBC" d="M108.292,33.546c0.236-0.272,0.474-0.744,0.738-1.247C108.771,32.564,108.523,32.935,108.292,33.546z"
						/>
					<path fill="#BCBCBC" d="M114.434,35.35c-0.06-0.337-0.169-1.22-0.677-1.597l0.325,1.569
						C114.189,35.331,114.311,35.34,114.434,35.35z"/>
					<path fill="#BCBCBC" d="M114.093,35.373l-0.011-0.05c-0.381-0.039-0.646-0.079-0.758-0.096
						C113.421,35.245,113.652,35.289,114.093,35.373z"/>
					<path fill="#BCBCBC" d="M114.522,35.358c-0.033-0.003-0.057-0.005-0.089-0.008C114.463,35.504,114.481,35.557,114.522,35.358z"
						/>
					<path fill="#BCBCBC" d="M118.159,37.385c-0.605,0.843-1.693,1.709-0.804,3.125C117.801,39.46,117.275,38.653,118.159,37.385z"
						/>
					<path fill="#BCBCBC" d="M114.889,37.325l0.903,0.377c0.004-0.415-0.136-1.023,0.143-1.454L114.889,37.325z"/>
					<polygon fill="#BCBCBC" points="114.424,37.814 114.889,37.325 114.552,37.186 					"/>
					<path fill="#BCBCBC" d="M109.971,34.873c-0.378,0.704-0.809,0.792-1.296,0.935c0.544,0.266,1.091,0.391,1.605,0.353
						C110.339,35.675,110.542,34.78,109.971,34.873z"/>
					<path fill="#BCBCBC" d="M111.977,35.228c-0.027,0.036-0.063,0.055-0.089,0.092C111.944,35.45,111.988,35.491,111.977,35.228z"
						/>
					<path fill="#BCBCBC" d="M103.872,36.295c0.034,0.085,0.071,0.176,0.107,0.265c-0.004-0.089-0.008-0.174-0.013-0.265H103.872z"
						/>
					<path fill="#BCBCBC" d="M110.379,36.447c0.404,0.288,0.63-0.099,0.849-0.586c-0.296,0.166-0.608,0.277-0.947,0.3
						C110.255,36.382,110.254,36.527,110.379,36.447z"/>
					<path fill="#BCBCBC" d="M106.958,34.381c0.23,0.294,0.488,0.554,0.753,0.785C107.477,34.693,107.001,33.968,106.958,34.381z"/>
					<path fill="#BCBCBC" d="M111.747,34.894c0.02-0.026,0.038-0.055,0.06-0.072C111.67,34.492,111.688,34.655,111.747,34.894z"/>
					<path fill="#BCBCBC" d="M111.747,34.894c-0.206,0.231-0.363,0.62-0.52,0.967c0.241-0.13,0.465-0.305,0.66-0.541
						C111.837,35.211,111.785,35.045,111.747,34.894z"/>
					<path fill="#BCBCBC" d="M103.719,46.199c-0.136-1.403,0.648-2.824,1.614-1.412c0.67-1.124-0.29-5.755-1.354-8.228
						c0.045,0.618,0.102,1.188-0.667,2.139c0.411,0.72,2.113,1.537,1.535,2.91c-1.023,0.871-0.964-0.379-1.607-1.046
						c0.675,1.687-1.069,2.727-0.448,5.254l0.803-1.025C103.664,45.189,103.415,45.866,103.719,46.199z"/>
					<path fill="#BCBCBC" d="M105.7,36.5l0.354-0.217c-0.444-0.2-0.796-0.734-1.478-1.774c-0.557,0.762-0.618,1.316-0.609,1.787
						c0,0,0.458-0.022,0.92-0.018c0.46-0.001,0.921-0.002,0.921-0.002L105.7,36.5z"/>
					<path fill="#BCBCBC" d="M107.718,36.111c-0.195,1.567-0.997,2.317-0.347,3.939c1.03-0.188,0.642-1.347,1.238-2.069
						c-1.705,0.506,0.451-0.903-0.865-1.693c0.329-0.29,0.638-0.394,0.931-0.48c-0.329-0.166-0.652-0.377-0.964-0.642
						c0.019,0.036,0.031,0.062,0.047,0.094l0.009-0.006c0,0.01,0,0.014-0.001,0.024c0.09,0.188,0.123,0.304,0.029,0.198
						c-0.005,0.02-0.026,0.029-0.035,0.035c0.002,0.217-0.019,0.408-0.042,0.592c-0.534-0.282-0.108-0.396,0.042-0.592
						c0.001-0.076,0.01-0.151,0.006-0.232l-0.008-0.019c0,0-0.437,0.237-0.859,0.503c-0.422,0.26-0.845,0.52-0.845,0.52
						C106.445,36.463,106.897,36.349,107.718,36.111z"/>
					<path fill="#BCBCBC" d="M116.233,43.851c-0.041-0.145-0.031-0.257-0.028-0.373C116.09,43.663,116.043,43.793,116.233,43.851z"
						/>
					<path fill="#BCBCBC" d="M115.626,42.863c0.129-0.214,0.264-0.854,0.643-0.667c0.306,0.503-0.05,0.76-0.063,1.282
						c0.249-0.401,0.894-1.071,0.205-1.901l-0.131,0.206c-0.622-0.575-1.425-2.563-1.302-2.778
						C115.125,40.433,115.262,41.452,115.626,42.863z"/>
					<path fill="#BCBCBC" d="M111.812,39.746l-1.387,0.8l0.74,1.342l-0.054-0.814C111.902,41.378,111.719,40.376,111.812,39.746z"/>
					<polygon fill="#BCBCBC" points="103.616,35.557 103.625,33.911 103.046,36.317 					"/>
					<polygon fill="#BCBCBC" points="101.737,36.03 101.613,34.623 101.227,35.552 					"/>
					<path fill="#BCBCBC" d="M105.572,103.457c0,0,0.091-0.059,0.183-0.117c0.091-0.065,0.183-0.13,0.183-0.13
						C105.77,103.29,105.657,103.369,105.572,103.457z"/>
					<path fill="#BCBCBC" d="M103.179,103.02l-0.147,0.48C103.193,103.248,103.273,103.056,103.179,103.02z"/>
					<path fill="#BCBCBC" d="M67.551,71.088c-0.269,0.197-0.555,0.407-0.825,0.604c-0.138,0.104-0.272,0.206-0.398,0.301
						c-0.112,0.073-0.216,0.141-0.31,0.202c-0.353,0.248-0.44,0.417,0.137,0.396l1.127-0.16c-0.097-0.226-0.111-0.432-0.04-0.702
						C67.301,71.486,67.411,71.275,67.551,71.088z"/>
					<path fill="#BCBCBC" d="M82.356,98.437c0.049-0.112,0.102-0.23,0.152-0.347c-0.377,0.143-0.73,0.276-1.054,0.398
						C81.729,98.473,82.035,98.455,82.356,98.437z"/>
					<path fill="#BCBCBC" d="M86.041,95.662c-0.018,0.01-0.097,0.939-0.097,0.939C86.031,96.322,86.043,96.037,86.041,95.662z"/>
					<path fill="#BCBCBC" d="M118.675,102.152l0.148-1.092C118.249,101.16,118.612,101.639,118.675,102.152z"/>
					<path fill="#BCBCBC" d="M82.307,46.075c-0.734,0.012-1.191,0.184-1.505,0.427C81.786,46.558,82.924,47.051,82.307,46.075z"/>
					<path fill="#BCBCBC" d="M102.975,114.937c0.292-0.159,0.433-0.366,0.458-0.612C103.14,114.473,102.957,114.66,102.975,114.937z
						"/>
					<path fill="#BCBCBC" d="M79.717,47.723c0.155,0.019,0.264-0.007,0.406-0.004c0.104-0.474,0.281-0.904,0.679-1.217
						C80.073,46.451,79.43,46.644,79.717,47.723z"/>
					<path fill="#BCBCBC" d="M142.915,68.296c0.017-0.044,0.021-0.092,0.042-0.134C142.89,68.17,142.894,68.223,142.915,68.296z"/>
					<path fill="#BCBCBC" d="M138.692,52.717c0.136,0.099,0.34,0.279,0.534,0.446C139.147,53.068,138.987,52.931,138.692,52.717z"/>
					<path fill="#BCBCBC" d="M93.927,37.027C94.253,36.834,93.941,36.849,93.927,37.027L93.927,37.027z"/>
					<path fill="#BCBCBC" d="M97.179,42.41c-0.044,0.186-0.058,0.412,0.011,0.757C97.14,42.802,97.142,42.563,97.179,42.41z"/>
					<path fill="#BCBCBC" d="M82.893,56.159l-0.024,0.02C83.125,56.265,83.077,56.247,82.893,56.159z"/>
					<path fill="#BCBCBC" d="M94.621,37.551c-0.177-0.145-0.366-0.253-0.558-0.314C94.165,37.331,94.336,37.436,94.621,37.551z"/>
					<path fill="#BCBCBC" d="M94.376,36.874c0.137,0.033,0.241,0.043,0.342,0.058C94.702,36.674,94.621,36.531,94.376,36.874z"/>
					<path fill="#BCBCBC" d="M93.459,37.241c0.194-0.079,0.398-0.061,0.604-0.004c-0.094-0.081-0.143-0.155-0.137-0.21
						C93.83,37.078,93.692,37.148,93.459,37.241z"/>
					<path fill="#BCBCBC" d="M139.669,94.292c0.033-0.002,0.062-0.013,0.104-0.011C139.678,93.8,139.642,93.953,139.669,94.292z"/>
					<path fill="#BCBCBC" d="M79.546,80.348c-0.014-0.013-0.044-0.016-0.06-0.027c-0.01,0.017-0.021,0.038-0.03,0.053L79.546,80.348
						z"/>
					<path fill="#BCBCBC" d="M80.563,81.316c-1.452-0.211-1.335-0.536-1.107-0.943l-3.119,0.918c0,0,1.059,0.017,2.117,0.033
						C79.508,81.32,80.563,81.316,80.563,81.316z"/>
					<path fill="#BCBCBC" d="M111.408,103.524l-0.801-1.017c0.919-1.547,1.55-0.973,0.822-2.373
						c-0.001,1.692-0.749,1.734-1.492,1.782c-0.744,0.063-1.482,0.083-1.629,1.799l-0.479-0.77c0.146,0.045,0.182-0.156,0.325-0.109
						c-0.88-1.735-0.915,2.435-2.243,1.839c-0.447-0.286-0.695-0.872-0.339-1.22l-1.13,0.691c-0.29-0.113-0.127-0.696,0.156-0.586
						l-1.597,0.038l0.029-0.099c-0.319,0.518-0.982,1.217-1.31,1.509c-0.301-0.58,0.276-0.313,0.26-0.761l-1.051,0.619
						c-0.149-0.957,0.757-1.644,1.307-1.382c-0.047-1.788-0.242-1.61-0.615-1.288c-0.362,0.325-0.919,0.79-1.495-0.376l0.882-0.252
						c-0.01-1.014-0.195-1.369-0.44-1.661c-0.236-0.31-0.541-0.543-0.752-1.254c-0.044,0.659,0.788,3.5-0.3,4.058
						c-0.182-0.333-0.463-0.554-1.153-0.038c0.362-1.18-0.184-1.034-0.786-1.147l0.574-1.534c-0.757,0.267-0.976,1.025-1.595,1.583
						c-0.622-0.429-0.28-1.658-0.018-2.704c-0.923-0.653-0.058,2.168-1.429,1.949c-0.339-0.453-0.669-0.631-1.126-0.635
						c-0.459-0.003-1.036,0.162-1.788,0.329c-0.312-0.791,0.597-0.819,0.618-1.334c0,0-0.291,0.219-0.581,0.438
						c-0.287,0.202-0.573,0.403-0.573,0.403c-0.103-0.106,0.144-0.424,0.268-0.585c-0.67,0.162-0.877,1.38-1.797,1.307
						c-0.584,0.696-0.593-0.1-0.656-0.891c-0.088-0.778-0.108-1.655-1.146-1.151c0.109-0.512,0.725-0.707,1.067-1.247
						c-0.917,0.121-1.308,0.122-1.707,0.19c-0.393,0.049-0.782,0.155-1.826,0.396c0,0,0.017-0.364,0.034-0.728
						c0.023-0.356,0.047-0.712,0.047-0.712c-0.2,0.67-0.708,1.114-1.373,1.396c-0.668,0.289-1.486,0.407-2.215,0.439
						c-0.263,0.61-0.498,1.166-0.556,1.454c0,0-0.412-0.135-0.823-0.287c-0.415-0.155-0.83-0.31-0.83-0.31
						c0.087-0.317,0.627-0.551,1.307-0.806c-0.168,0.009-0.333,0.021-0.477,0.042c0.127-0.799,1.054-1.167,1.982-1.485
						c-0.149,0.347-0.302,0.699-0.452,1.045c0.983-0.377,1.995-0.884,2.666-1.581c-0.193,0.063-0.417,0.046-0.599-0.032
						c0.257-0.113,0.472-0.233,0.571-0.371c0.103-0.147-0.252-0.008-0.706,0.1l1.221-1.398L85.06,95.22c0,0-0.032-0.487-0.063-0.975
						c-0.042-0.468-0.008-0.975-0.008-0.975c-1.058,0.078-2.314,0.264-3.551,0.237c-1.197-0.051-2.345-0.339-3.216-1.103
						c1.454-0.162,2.003-0.922,3.436-1.625c-1.213,1.25,1.333,0.962,1.54,1.916c-0.135-0.508,0.583-0.815,0.87-0.853
						c0,0-0.138-0.034-0.334-0.098c-0.201-0.064-0.468-0.15-0.735-0.236c-0.546-0.188-1.093-0.376-1.093-0.376
						c1.174-0.591,0.666-0.769,0.962-1.412c-2.156,1.477-2.083-0.426-3.124-0.779c0.781-0.374,1.669-0.563,1.838,0.295
						c0.688-0.831-0.133-0.776-0.989-0.763c-0.84,0.017-1.732,0.006-1.134-0.75c0.098,0.199,0.016,0.36,0.457,0.28
						c-0.899-0.207-0.779-1.606,0.044-1.564l0.093,0.194c-0.089-0.727-0.393-1.762-0.94-2.596c-0.512-0.845-1.307-1.501-2.41-1.395
						c0.275-0.069,2.637-0.349,3.089-0.364c0,0-0.487-0.062-1.218-0.153c-0.72-0.103-1.684-0.255-2.654-0.436
						c-0.97-0.179-1.944-0.385-2.677-0.552c-0.729-0.174-1.215-0.291-1.215-0.291c1.904-0.05,6.218-1.545,7.458-0.529
						c0.195-0.375,0.468-0.82-0.278-1.445c-0.241,0.253-2.636,0.937-2.848,0.624c1.989-1.16,1.011-0.781,2.718-2.028
						c-0.38,0.385-3.357,0.252-3.306-0.365c0.448,0.06,2.915-0.242,3.236-0.063c0,0-0.75-0.301-1.5-0.603
						c-0.759-0.313-1.483-0.654-1.483-0.654c0.531,0.345,2.465-0.041,3.282-0.359c-0.557,0.156,0.009-1.17-0.249-1.521
						c0,0-0.173,0.141-0.346,0.282c-0.168,0.145-0.335,0.29-0.335,0.29c0.482-1.516-4.125-1.661-3.723-3.327
						c0.566,0.337,3.632,0.899,4.075,0.463c-0.724-0.264-2.369-0.973-3.937-2.012c-0.775-0.514-1.543-1.126-2.109-1.736
						c-0.559-0.6-0.958-1.21-1.075-1.741l0.933,0.018c0,0-0.111-0.413-0.222-0.827c-0.089-0.405-0.177-0.81-0.177-0.81
						c0.861,0.865,2.224,2.345,3.588,3.631c0.689,0.645,1.322,1.256,1.966,1.767c0.634,0.51,1.188,0.919,1.577,1.219
						c0.801-0.24,1.03,0.157,1.142-0.454c0.839,0.072,1.082,0.688,1.075,0.836c0.018-0.01,0.196-0.236,0.486-0.524
						c0.289-0.285,0.577-0.569,0.577-0.569c-0.842-0.311-1.149-0.747-1.378-1.214c-0.206-0.469-0.374-0.949-1.07-1.252
						c0,0,0.044,0.164,0.109,0.41c0.071,0.243,0.14,0.567,0.275,0.869c0.244,0.583,0.489,1.165,0.489,1.165
						c-0.853-0.275-1.933-0.947-2.678-1.786c-0.775-0.833-1.088-1.828-0.602-2.432c0.815,0.007,2.758,1.727,3.319,1.954
						c-0.239-0.214-0.354-0.626-0.353-0.981c0.006-0.354,0.17-0.641,0.394-0.583l0.541,0.967c1.006-0.259-1.434-2.293,0.589-2.158
						c0.3-0.215,2.58,0.553,1.691-0.104c-2.074-0.798-7.67-4.248-8.764-5.511c0.199-0.064,2.827-0.601,3.956-0.261
						c1.721,0.551,2.707,3.104,4.188,3.563c-0.405-0.319-0.724-0.941-0.807-1.168c0.579-0.017,1.194,1.077,1.489,0.338
						c-1.456-1.284,1.124-1.133-1.063-1.29c0.046-0.957,0.849-0.383,1.373-1.124c-1.158-0.566-2.769-3.436-2.595-4.458
						c0.342,0.372,0.957,0.668,1.24,0.803c1.264-1.155,2.582-1.122,3.707-2.172c0.455,0.264,1.425,0.242,1.8,1.102
						c-0.087-0.405-0.415-1.058-0.094-1.402c1.896,0.794-0.595,0.868,1.389,2.056c-0.774-0.929-0.237-2.012-0.203-2.997
						c-1.41-1.374-1.445,0.718-1.422,1.691c-1.745-1.872-2.738-4.746-2.132-6.93c0.64-1.525,1.54,0.957,1.484,0.481
						c1.17-0.646,0.916-1.98,0.747-3.209c-0.068-0.604-0.105-1.17,0.071-1.578c0.086-0.207,0.236-0.358,0.446-0.477
						c0.23-0.085,0.535-0.112,0.935-0.052c0.93,0.548,1.365,1.375,1.7,2.167c0.333,0.797,0.576,1.565,0.986,2.108
						c-0.589,1.155-2.074-0.103-2.676,0.434c0,0,0.301,0.024,0.624,0.078c0.315,0.052,0.629,0.104,0.629,0.104
						c0.017,0.7-0.309,1.473-0.92,1.293c0.375,0.228,0.772,0.192,1.222,0.058c0.454-0.128,0.944-0.379,1.458-0.663
						c0.523-0.26,1.1-0.491,1.665-0.653c0.577-0.09,1.163-0.076,1.632,0.176c0.178-0.69,0.589-1.465,0.136-2.131l-0.522,0.402
						c-0.905-1.33,0.596-2.312-0.317-2.807c0.278-0.618,0.479-1.393,0.895-1.945c0.408-0.553,0.943-0.89,1.655-0.608l0.647,2.073
						c-0.136-0.624-1.047-1.089-1.25-0.37c0.147-0.519,0.784,0.072,1.326,0.478c0.551,0.399,1.045,0.574,1.062-0.875l-1.108-1.309
						c0.638-1.242,1.354-3.73,2.572-3.238c-0.835-2.035-0.207,0.284-1.405-2.052c1.202,2.93-2.89,0.445-1.195,3.441
						c-1.338-2.689-1.616-0.918-3.342-3.028c0.201,0.681,0.719,1.22-0.375,1.128c0.013,0.211-0.011,0.491-0.029,0.655
						c-0.029-0.011-0.041-0.021-0.067-0.036l0.065,0.069c-0.01,0.113-0.008,0.135,0.023,0.024c0.255,0.248,0.561,0.561,0.726,0.927
						c-0.082,0.852-0.375,1.344-0.746,1.747c-0.181,0.201-0.368,0.378-0.525,0.563l-0.015,0.017l-0.008,0.009l-0.003,0.004
						l-0.001,0.001l-0.001,0c0.077-0.02-0.105,0.027-0.087,0.023l-0.003,0.002l-0.046,0.043l-0.089,0.087
						c-0.057,0.058-0.109,0.117-0.157,0.177c-0.096,0.12-0.172,0.242-0.222,0.371c-0.837-0.059,0.067-0.881-0.568-1.453
						c0,0-0.162,0.391-0.324,0.782c-0.141,0.387-0.281,0.773-0.281,0.773c-0.328-0.712-1.112-1.109-1.547-1.505
						c-0.231-0.2-0.409-0.405-0.45-0.664c-0.014-0.26-0.006-0.569,0.437-0.988c0,0-0.118,0.043-0.296,0.107
						c-0.141,0.063-0.329,0.148-0.517,0.233c-0.375,0.173-0.751,0.347-0.751,0.347c-0.606-0.167-1.343-0.148-1.815,0.026
						c-0.244,0.086-0.458,0.217-0.633,0.377c-0.14,0.219-0.271,0.418-0.325,0.679c-0.363,0.083-0.48,0.72-0.512,1.149
						c-0.013,0.431,0.025,0.67-0.102-0.008l-1.009,2.186l-0.235-0.279c-0.419,0.313-0.663,0.788-0.912,1.288
						c-0.252,0.49-0.484,1.005-0.761,1.469c-0.514,0.952-1.237,1.654-2.809,1.583c-0.177,0.737-0.308,1.517-1.262,2.059
						l-0.958-0.632c-0.202,0.92-2.421,1.144-1.761,2.202c-1.41-0.647-2.159,0.078-2.703,1.039c-0.54,0.973-0.826,2.223-1.458,2.673
						l1.123,0.883c-0.624,0.786-0.797,1.871-0.975,3.215l1.085,0.6c0.356,1.45-2.108,1.88-2.718,3.62
						c-0.367-0.31-0.068-0.672,0.315-0.831c-0.833,0.165-1.261,0.583-1.465,1.104c-0.206,0.52-0.147,1.223-0.076,1.86
						c0.121,1.273,0.497,2.568-0.69,3.375c0.279,0.595,0.102,0.994-0.24,1.36c0.004-0.055-0.012-0.108-0.043-0.156
						c-0.021,0.058-0.034,0.148-0.042,0.241c-0.229,0.231-0.49,0.475-0.704,0.758c0.306-0.228,0.563-0.437,0.693-0.627
						c-0.025,0.441,0.042,1.216,0.29,1.803l-1.251,0.167c0.015,0.044,0.012,0.079,0.032,0.124c-0.473,0.506,0.58,0.431,1.524,0.195
						c0.198,0.265,0.439,0.506,0.735,0.692c-2.033,0.386,0.659,1.313-1.464,1.889c0.532,0.163,0.729,0.799,1.106,1.404
						c0.384,0.605,0.912,1.176,2.017,1.215c-0.285,0.039-0.41,0.193-0.447-0.068c-0.218,0.559-0.418,1.137,0.266,1.552l-1.544,0.41
						c0,0,0.565,0.235,1.129,0.471c0.563,0.222,1.126,0.444,1.126,0.444c-0.861,0.837-1.335,1.252-2.674,0.699
						c2.165,1.459,0.933,1.339,3.048,2.421l-1.016,0.143c0.163,0.522,1.687,1.017,0.94,1.525c-0.827,0.813-0.451,2.283,0.054,3.951
						c0.294,0.825,0.578,1.715,0.83,2.607c0.271,0.888,0.438,1.804,0.385,2.74c1.2-0.958,1.056-0.477,0.919,0.121
						c-0.146,0.601-0.3,1.352,0.74,0.83c-0.526,0.509-0.642,1.117-1.441,0.958c0.715,0.565,0.788,1.255,1.028,1.796
						c0.221,0.543,0.55,0.962,1.676,0.87c-0.467,0.577-1.053,0.304-1.297,0.69c0.206,0.028,0.812,0.091,0.574,0.49
						c-0.237,0.397-0.624,0.145-1.035,0.093c0.55,0.724,1.358,0.744,2.168,0.456c0.819-0.291,1.687-0.902,2.521-1.501
						c-0.231,1.243,0.171,1.51,1.537,1.052c-0.296,0.641-0.478,1.496-1.354,0.891c0.282,0.49,1.858,3.272,3.003,2.074
						c-0.138,0.425,0.543,0.602,0.779,0.55c0.942,0.866,0.91,1.113,2.036,1.704l-0.133-0.409c1.558-1.339,1.1,0.198,2.071,0.548
						l-0.132,0.156c0.573,1.239,0.898,1.217,1.185,1.192c0.293-0.012,0.541-0.017,1.184,1.229l0.448-1.151
						c0.695-1.128,0.926-0.57,1.227,0.251c0.295,0.818,0.708,1.804,1.495,1.589l-0.158-0.82c0.493-0.288,0.587,0.718,0.677,1.887
						c0.085,1.163,0.163,2.508,0.473,2.762c0.082,0.264-0.369,0.276-0.645,0.354c1.386,2.08,0.778-1.434,2.258-1.359
						c-0.006,0.905-1.008,1.994-0.099,2.444c0.139,0.403,1.04-0.032,1.977-0.388c0.947-0.379,1.916-0.632,2.388,0.325
						c-0.148-0.717-0.27-1.428,0.468-1.774c0.967,0.024,2.244,2.954,3.458,1.023c0.101,0.199,0.125,0.378,0.108,0.543
						c0.832-0.383,2.574-0.631,3.101-1.73c0.177,2.107,1.425,1.768,2.517,1.162c1.098-0.566,2.05-1.161,2.074,0.754
						c0,0,0.587-0.046,1.169-0.143c0.581-0.103,1.162-0.205,1.162-0.205l-0.039,0.391c1.522,0.107,1.979-0.832,2.39-1.786
						c0.362,0.201,0.157,0.585,0.149,0.785c2.222,0.385,2.5,0.225,3.903-1.942l0.411,1.122c0.172-0.396,1.02-0.119,2.079,0.006
						c1.06,0.167,2.307-0.018,3.134-0.98c0.02,0.131,0.045,0.359-0.071,0.569c0.478-0.528,1.125-0.667,1.809-0.776
						c0.685-0.104,1.43-0.086,2.107-0.141c1.361-0.072,2.406-0.566,1.906-2.598l0.942-1.617c-1.914,0.638-0.553-1.683-1.583-1.907
						c0.276-0.271,0.848-0.217,1.27-0.031c0.409,0.165,0.682,0.497,0.316,0.819l-0.228-0.109c0.726,2.063,2.468-0.666,3.168,0.559
						c0.424-0.282,0.838-0.573,1.268-0.839c0.405-0.305,0.817-0.599,1.234-0.885c0.82-0.59,1.72-1.071,2.486-1.728
						c0.79-0.625,1.593-1.238,2.34-1.901c0.687-0.724,1.387-1.435,2.022-2.187l-1.391-0.549c0.001,0,0.918-0.951,0.889-0.98
						c0.445-0.104,1.177,0.276,0.544,1.025c0.975,0.087,0.375-1.774,0.138-1.942c1.504-1.278,0.949,1.555,1.289,1.093l0.356-0.75
						l-0.236,0.064c-0.122-0.875-0.607-1.239,0.073-2.176c0.581-0.509,0.918,0.087,1.098-0.148c0.085,0.05,0.17-0.02,0.233-0.391
						l0.862-1.528l-1.28,0.152c-0.156-0.911,0.736-1.396-0.715-1.221c1.161-0.072,1.802-1.524,2.305-2.95
						c0.281-0.707,0.365-1.448,0.504-2.025c0.13-0.579,0.26-1.009,0.437-1.149c-0.479-1.166-0.414-2.138-0.162-3.363
						c-0.25,0.285-1.43,0.311-1.161-0.692c1.155,0.308,1.518-0.147,1.7-0.79c0.188-0.641,0.294-1.443,1.147-1.876
						c-0.568,0.387-0.627-0.396-0.747-1.109c-0.153-0.715-0.406-1.347-1.147-0.721c0.125-0.886,0.871-0.082,1.368-0.789
						c-0.285-0.526-0.35-1.086-0.465-1.663c-0.072-0.582-0.186-1.173-0.241-1.792c-0.067-0.616-0.133-1.251-0.249-1.887
						c-0.122-0.634-0.369-1.252-0.657-1.857c-0.237,0.017-0.448,0.509-0.969,0.067c0,0,0.175-0.39,0.324-0.784
						c0.153-0.394,0.281-0.789,0.281-0.789c-0.313-0.454-1.36-0.094-1.066-1.154c-0.103,0.171-0.271,0.426-0.469,0.134
						c-0.137-0.611-0.329-1.211-0.554-1.801c-0.098-0.3-0.269-0.573-0.397-0.862l-0.385-0.87c-0.271-0.575-0.528-1.157-0.839-1.714
						l-0.989-1.643c-1.295-2.207-2.866-4.21-4.265-6.356c0.332,0.624-0.001,0.302-0.407-0.037c0.218,0.262-0.208,0.174-0.269,0.316
						c0,0-0.313-0.423-0.627-0.847c-0.328-0.415-0.656-0.831-0.656-0.831c-0.134-0.001-0.305-0.096-0.492-0.235
						c-0.2-0.127-0.433-0.281-0.644-0.451c-0.497-0.256-0.938-0.533-1.1-0.507l0.589,0.321c-0.471-0.124-0.293,0.145-0.12,0.542
						c0.175,0.397,0.366,0.89,0.158,1.02c0.968,0.391,1.108,2.343,2.499,3.141c0.088,0.362-0.328-0.104-0.342,0.14
						c0.43,0.144,0.76,0.491,1.141,1.282l-0.116-0.036c1.309,2.042,1.561,3.121,2.477,5.65l0.298-0.366
						c0.215,0.542,0.108,0.727,0.113,1.021c0.421,0.173,0.282-0.21,0.146-0.606c-0.16-0.384-0.333-0.773,0.125-0.659
						c-0.437,1.059,1.626,3.825,0.469,4.779c0.132,0.88,0.515-0.448,0.667,0.432l-0.276,0.334l0.456,0.09
						c0.049,0.595-0.332,1.005-0.627,1.11c0.017-0.147-0.137-0.367-0.18-0.507c-0.132,0.423-0.082,0.939,0.005,1.383
						c0.092,0.443,0.229,0.814,0.161,0.958l0.188-0.894c0.124,0.575,0.208,1.193,0.271,1.825c0.037,0.636-0.002,1.295,0.006,1.938
						c-0.005,0.645,0.048,1.275,0.029,1.887c0.116,0.602,0.293,1.181,0.583,1.733l0.382-0.185c0.427,0.857,0.247,1.214,0.087,1.578
						c-0.174,0.368-0.401,0.741-0.273,1.691l-0.091-0.075c0.399,0.404,0.507,0.928,0.389,1.439
						c-0.396-0.515-1.038,0.768-1.462,0.097c0.5,1.896,0.537,0.959,1.747,2.446l-0.731,0.144c0.493,0.537,0.799,0.646,0.735,1.643
						c-0.375-0.912-1.15,0.32-1.686-0.712c-0.49,0.371-0.647,0.752-0.747,1.103c-0.099,0.35-0.055,0.699-0.021,1.018
						c0.07,0.634,0.097,1.162-1.08,1.138c1.459,1.579,1.576-1.172,1.784-0.555c0.739-0.203,1.07,1.217,0.667,1.768
						c-0.33,0.598-2.758-0.031-3.403,1.282c0.077-0.128-0.048-0.208,0.028-0.335c-0.661,0.256,0.03,1.296-1.062,1.425
						c0.773,0.971-0.563,0.685,0.623,1.654l0.519-1.374c-0.062,0.434,0.17,1.058,0.22,1.676c0.048,0.611-0.055,1.247-0.887,1.491
						c-0.175-0.282-0.206-0.833-0.228-1.192c-0.598,0.035-0.267,0.767-0.897,0.789c-0.557-0.536-0.339-0.906-0.021-1.316
						c0.262-0.438,0.609-0.939,0.362-1.595c-0.752-0.055,0.016,1.921-1.09,0.604c0.703,0.875,0.374,1.119-0.008,1.352
						c-0.39,0.237-0.836,0.455-0.578,1.381l-0.647-0.671c-0.001,0.21,0.094,0.752-0.13,0.955l-0.523-1.21
						c0.116,0.645-0.352,0.754-0.865,0.777c-0.506,0.035-1.038,0-1.135,0.448c1.224-1.009,1.078,0.618,2.105,0.673
						c-0.354,1.139-1.021,0.894-1.759,0.535c-0.372-0.179-0.75-0.365-1.146-0.431c-0.403-0.071-0.805-0.008-1.19,0.375
						c0.156-0.26,1.321-0.132,1.214,0.478c-0.491,0.078-1.197,0.079-1.726-0.214c-1.089,0.952,0.803,0.721,0.648,1.567
						c-1.136-0.721-0.323,0.813-0.722,1.485l-0.58-0.884c-1.852,0.286,0.759,2.116-1.058,2.235l-0.159-1.626
						c0,0-0.504,0.75-0.519,0.733l-0.443-1.139c-0.351,1.155-0.739,1.073-1.663,1.115c0.517,0.604,0.756,1.82,0.038,2.203
						c-0.771-0.394-0.138-1.048-1.128-0.522c-0.031-0.732-0.115-1.566,0.723-0.853c-0.103-0.345-0.066-0.723-0.172-1.061
						c-0.789-0.423-1.357,0.326-1.718,0.477c0.155-0.01,0.346-0.013,0.493,0.102c0,0-0.228,0.484-0.454,0.968
						c-0.24,0.496-0.481,0.991-0.481,0.991c-0.381-0.305-0.305-0.691-0.236-1.063c-0.262,0.208-0.282,0.802-0.724,1.005
						c-0.178-0.901-0.485-1.748-0.036-2.364c0,0-0.242,0.372-0.525,0.686c-0.279,0.331-0.56,0.662-0.56,0.662
						c-0.22-0.351-1.049-0.859-0.962-1.229c-0.462-0.169-0.795,0.392-1.207,0.914c-0.416,0.499-0.896,0.999-1.509,0.739
						c-0.018,0.188-0.094,0.377-0.297,0.551c-0.265-0.007-0.531-0.069-0.797-0.145c-0.27-0.093-0.537-0.193-0.802-0.246
						c-0.529-0.105-1.038-0.025-1.567,0.69c0,0-0.22-0.41-0.438-0.819c-0.213-0.418-0.426-0.837-0.426-0.837
						c-0.913,0.408,1.168,2.138-0.394,2.831c-1.123,0.592-0.541-1.463-0.969-1.937c-0.472,0.887-1.446,2.744-2.523,1.233
						C110.813,103.366,111.087,103.64,111.408,103.524z M99.532,102.74c0.287-0.165,0.931-0.843,0.913-0.102
						C99.841,103.942,99.79,103.261,99.532,102.74z M82.984,95.459c0.442-0.11,0.451,0.219,0.287,0.756
						C83.046,96.103,82.914,95.87,82.984,95.459z M88.59,40.702c-0.002,0.031,0,0.055,0.006,0.09
						C87.607,40.652,87.969,40.723,88.59,40.702z M90.517,40.509c0.06-0.292-0.046-0.499-0.214-0.675
						c0.064,0.442-0.278,0.648-0.74,0.757C89.879,40.92,90.208,41.087,90.517,40.509z M147.002,94.321l-0.328,0.127
						C146.708,93.775,146.843,94.042,147.002,94.321z"/>
					<path fill="#BCBCBC" d="M85.614,95.982c-0.116,0.189-0.276,0.358-0.439,0.526C85.387,96.44,85.565,96.278,85.614,95.982z"/>
					<path fill="#BCBCBC" d="M118.645,102.355c0.014,0.007,0.024,0.001,0.037,0.006c0.006-0.071,0.001-0.141-0.007-0.209
						L118.645,102.355z"/>
					<path fill="#BCBCBC" d="M84.097,63.135c-0.299,0.057-0.58,0.008-0.84-0.078C83.518,63.264,83.809,63.349,84.097,63.135z"/>
					<path fill="#BCBCBC" d="M98.017,35.262l-0.8,0.622c0.41-0.173,0.632,0.16,0.896,0.381
						C98.02,35.877,97.745,35.348,98.017,35.262z"/>
					<path fill="#BCBCBC" d="M106.683,44.71c0.096-0.222,0.24-0.044,0.335-0.27l-0.1-0.801
						C106.427,43.738,106.147,44.415,106.683,44.71z"/>
					<path fill="#BCBCBC" d="M99.81,40.675c0.313,1.396,0.735,0.835,1.269,0.475c-0.033,0.011-0.064,0.028-0.102,0.017
						C100.832,39.15,100.309,39.911,99.81,40.675z"/>
					<path fill="#BCBCBC" d="M101.204,41.08c0.166-0.096,0.342-0.165,0.525-0.125C101.677,40.144,101.487,40.826,101.204,41.08z"/>
					<path fill="#BCBCBC" d="M92.588,38.649c0.55,0.194-0.23-1.831,0.202-1.371c0.035-0.96-0.661-0.157-0.971,0.652
						C91.513,38.74,91.531,39.531,92.588,38.649z"/>
					<polygon fill="#BCBCBC" points="101.062,45.261 100.568,43.543 100.503,45.007 					"/>
					<path fill="#BCBCBC" d="M96.484,44.868l0.989,0.272c-0.08-0.284-0.007-0.477,0.103-0.637
						C97.013,44.566,96.33,44.365,96.484,44.868z"/>
					<path fill="#BCBCBC" d="M97.576,44.503c0.293-0.03,0.556-0.126,0.657-0.444C98.081,44.112,97.758,44.244,97.576,44.503z"/>
					<polygon fill="#BCBCBC" points="99.974,45.996 99.651,45.681 99.017,45.668 					"/>
					<path fill="#BCBCBC" d="M87.597,49.365l-0.466,0.99c0.272,0.476,0.688,0.562,0.828,0.167
						C87.897,50.082,88.045,49.68,87.597,49.365z"/>
					<path fill="#BCBCBC" d="M92.562,51.306c-0.396-0.162-0.622-0.461-1.051-0.837l1.163,1.717L92.562,51.306z"/>
					<path fill="#BCBCBC" d="M90.706,53.078c0.262,0.485-0.026,1.946,0.778,1.223C91.213,53.838,91.649,52.969,90.706,53.078z"/>
					<polygon fill="#BCBCBC" points="79.378,61.438 79.496,61.227 77.146,59.61 					"/>
					<path fill="#BCBCBC" d="M80.881,72.936c0.158-0.265,0.16-0.253,0.061-0.314c-0.098-0.044-0.292-0.074-0.482-0.103
						c-0.381-0.053-0.737-0.121-0.292-0.31c-0.589-0.228-0.734,0.336-1.242,0.15c0.142,0.111,0.222,0.199,0.295,0.271
						c0.075,0.087,0.147,0.195,0.247,0.252C79.671,73.009,80.012,73.028,80.881,72.936z"/>
					<path fill="#BCBCBC" d="M78.926,72.359c-0.089-0.071-0.202-0.151-0.358-0.245C78.709,72.252,78.824,72.316,78.926,72.359z"/>
					<path fill="#BCBCBC" d="M136.729,50.739c-0.071,0.08-0.183-0.082-0.364-0.163c-0.167-0.097-0.334-0.195-0.334-0.195
						c0,0,0.373,0.318,0.374,0.317C136.419,50.682,136.656,50.819,136.729,50.739z"/>
					<path fill="#BCBCBC" d="M135.198,50.305l-0.047-0.224c0,0-0.126-0.021-0.251-0.043c-0.12-0.026-0.24-0.053-0.24-0.053
						C134.811,50.063,135.111,50.208,135.198,50.305z"/>
					<path fill="#BCBCBC" d="M98.905,99.038l-0.169,0.366c-0.05,0.437,0.072,0.509,0.317,0.656L98.905,99.038z"/>
					<polygon fill="#BCBCBC" points="106.53,101.918 106.391,101.874 106.516,103.383 					"/>
					<path fill="#BCBCBC" d="M113.381,100.383c-0.277-0.06-0.579,0.265-0.859,0.206
						C113.096,100.325,113.596,102.184,113.381,100.383z"/>
				</g>
			</g>
		</g>
	</g>
	<g id="ring">
		<g>
			<g>
				<g>
					<path fill="#F1E09D" d="M88.444,43.427c0.452,0.252,0.616-0.672,0.75-0.802C88.318,42.517,88.376,43.659,88.444,43.427z"/>
					<polygon fill="#F1E09D" points="79.774,42.309 80.053,42.022 78.55,42.397 					"/>
					<path fill="#F1E09D" d="M72.441,39.28c0.102,1.7,2.752,0.875,3.848,1.92l0.082,0.413l1.061-0.898
						C75.771,40.239,73.394,40.138,72.441,39.28z"/>
					<path fill="#F1E09D" d="M69.823,34.625c0.008,0.644-1.043,0.121,0.837,0.547c-0.063-0.096-0.074-0.141-0.106-0.206
						C70.393,34.908,70.176,34.822,69.823,34.625z"/>
					<path fill="#F1E09D" d="M70.554,34.967C71.34,35.244,70.245,34.301,70.554,34.967L70.554,34.967z"/>
					<path fill="#F1E09D" d="M66.865,33.784l1.222-0.058c-0.075-0.411-0.946-0.863-0.511-0.955
						C66.422,32.599,66.499,33.007,66.865,33.784z"/>
					<path fill="#F1E09D" d="M65.467,34.395l0.614,0.018C66.046,34.239,65.927,34.133,65.467,34.395z"/>
					<path fill="#F1E09D" d="M67.381,34.45l-1.3-0.038c0.05,0.287-0.128,0.746,0.579,0.06C66.392,34.847,66.782,34.543,67.381,34.45
						z"/>
					<path fill="#F1E09D" d="M67.921,34.93c0.439,0.544,1.093,1.048-0.132,1.101C69.812,36.662,69.945,35.554,67.921,34.93z"/>
					<path fill="#F1E09D" d="M71.454,40.582l0.59,0.731l0.858-0.198C72.475,41.213,71.592,40.121,71.454,40.582z"/>
					<path fill="#F1E09D" d="M60.849,30.394c-0.191,0.267,0.004,0.93-0.083,1.339l0.9-0.018
						C61.366,31.349,60.711,30.852,60.849,30.394z"/>
					<path fill="#F1E09D" d="M60.766,31.733l-1.345,0.027C60.401,32.247,60.689,32.085,60.766,31.733z"/>
					<polygon fill="#F1E09D" points="64.623,35.864 66.923,35.577 64.261,35.728 					"/>
					<polygon fill="#F1E09D" points="56.554,28.534 57.486,28.126 55.906,28.669 					"/>
					<path fill="#F1E09D" d="M53.311,27.33c0.845-0.316-0.521-1.32,0.279-1.402c-1.107-0.328-2.164-0.189-3.064-0.048
						C51.427,25.961,52.336,26.398,53.311,27.33z"/>
					<path fill="#F1E09D" d="M49.067,26.024c0.437,0.021,0.919-0.064,1.459-0.145C50.047,25.837,49.565,25.859,49.067,26.024z"/>
					<path fill="#F1E09D" d="M57.564,30.798c-0.011-0.214,0.021-0.75-0.527-1.214l0.088,1.014
						C57.26,30.658,57.411,30.728,57.564,30.798z"/>
					<path fill="#F1E09D" d="M57.13,30.63l-0.004-0.033c-0.471-0.228-0.797-0.385-0.938-0.453
						C56.307,30.206,56.591,30.352,57.13,30.63z"/>
					<path fill="#F1E09D" d="M57.675,30.85c-0.041-0.019-0.07-0.033-0.11-0.052C57.572,30.897,57.586,30.936,57.675,30.85z"/>
					<path fill="#F1E09D" d="M62.007,33.861c-0.858,0.186-2.45,0.094-1.424,1.37C61.301,34.864,60.714,34.138,62.007,33.861z"/>
					<path fill="#F1E09D" d="M57.78,32.117l1.114,0.699c0.071-0.228-0.008-0.639,0.419-0.729L57.78,32.117z"/>
					<polygon fill="#F1E09D" points="57.082,32.129 57.78,32.117 57.367,31.858 					"/>
					<path fill="#F1E09D" d="M51.472,27.897c-0.759,0.11-1.458-0.14-2.259-0.399c0.806,0.517,1.639,0.958,2.458,1.291
						C51.871,28.567,52.402,28.241,51.472,27.897z"/>
					<path fill="#F1E09D" d="M54.479,29.393c-0.044,0.004-0.094-0.006-0.135-0.001C54.385,29.491,54.432,29.538,54.479,29.393z"/>
					<path fill="#F1E09D" d="M40.171,24.132c0.07,0.081,0.14,0.159,0.213,0.242c-0.005-0.055-0.009-0.106-0.013-0.164L40.171,24.132
						z"/>
					<path fill="#F1E09D" d="M51.759,29.003c0.566,0.417,1.006,0.361,1.467,0.251c-0.504-0.108-1.02-0.256-1.555-0.467
						C51.58,28.888,51.545,28.964,51.759,29.003z"/>
					<path fill="#F1E09D" d="M46.752,25.532c0.32,0.329,0.682,0.645,1.058,0.954C47.531,26.07,46.901,25.345,46.752,25.532z"/>
					<path fill="#F1E09D" d="M54.268,29.09c0.031-0.002,0.061-0.007,0.093-0.004C54.266,28.837,54.249,28.932,54.268,29.09z"/>
					<path fill="#F1E09D" d="M54.268,29.09c-0.362-0.009-0.719,0.085-1.042,0.165c0.392,0.085,0.845,0.161,1.118,0.137
						C54.305,29.306,54.279,29.19,54.268,29.09z"/>
					<path fill="#F1E09D" d="M40.387,30.099c-0.214-0.529-0.103-0.925,0.34-0.925c0.427-0.017,1.142,0.281,1.847,1.02
						c0.484-0.134,0.486-0.999,0.092-2.13c-0.388-1.129-1.239-2.536-2.282-3.689c0.076,0.399,0.125,0.764-1.356,0.731
						c0.405,0.375,1.433,1.017,2.164,1.594c0.741,0.58,1.172,1.092,0.661,1.288c-1.751-0.217-1.65-0.917-2.87-1.806
						c0.678,0.773,0.213,0.976-0.134,1.288c-0.177,0.167-0.336,0.353-0.357,0.622c-0.028,0.26,0.095,0.618,0.482,1.186
						c-0.025-0.008,0.979-0.266,1.005-0.227C40.128,29.354,39.899,29.678,40.387,30.099z"/>
					<path fill="#F1E09D" d="M43.917,25.709l0.756,0.158c-0.877-0.46-1.503-1.029-2.866-2.178c-1.286-0.025-1.431,0.239-1.437,0.521
						l3.8,1.458L43.917,25.709z"/>
					<path fill="#F1E09D" d="M47.638,27c-0.618,0.712-1.988,0.557-1.276,1.89c1.606,0.597,1.233-0.296,2.304-0.276
						c-2.755-0.89,0.889-0.175-1.021-1.501c0.576,0.071,1.087,0.229,1.568,0.384c-0.488-0.316-0.958-0.652-1.403-1.011
						c0.022,0.033,0.038,0.056,0.057,0.083l0.014,0.002l-0.005,0.013c0.106,0.164,0.135,0.249,0.007,0.126
						c-0.011,0.007-0.047-0.003-0.063-0.006c-0.039,0.118-0.109,0.207-0.181,0.29c-0.792-0.521-0.097-0.289,0.181-0.29
						c0.017-0.041,0.045-0.074,0.056-0.121l-0.009-0.016c0,0-0.733-0.166-1.465-0.333c-0.864-0.185-1.729-0.369-1.729-0.369
						c0.38,0.201,0.818,0.38,1.346,0.565C46.446,26.604,46.966,26.782,47.638,27z"/>
					<path fill="#F1E09D" d="M58.579,36.501c-0.039-0.104-0.01-0.163,0.01-0.226C58.396,36.314,58.31,36.36,58.579,36.501z"/>
					<path fill="#F1E09D" d="M57.851,35.59c0.217-0.044,0.501-0.318,1.007,0.001c0.363,0.454-0.175,0.399-0.269,0.685
						c0.423-0.08,1.406-0.106,0.554-0.954l-0.212,0.044c-0.802-0.685-1.545-2.236-1.334-2.281
						C57.544,33.951,57.552,34.588,57.851,35.59z"/>
					<path fill="#F1E09D" d="M53.181,31.661l-2.285-0.467l0.802,1.176l0.111-0.461C52.922,32.571,52.899,31.934,53.181,31.661z"/>
					<path fill="#F1E09D" d="M39.66,23.492c0,0,0.021-0.238,0.043-0.475c0.029-0.236,0.058-0.471,0.058-0.471
						s-0.375,0.217-0.703,0.448c-0.332,0.23-0.617,0.473-0.617,0.473L39.66,23.492z"/>
					<polygon fill="#F1E09D" points="35.699,22.283 35.318,21.307 34.605,21.637 					"/>
					<path fill="#F1E09D" d="M136.081,94.125l0.622,0.119C136.424,94.162,136.231,94.13,136.081,94.125z"/>
					<path fill="#F1E09D" d="M132.242,92.025l-0.247,0.225C132.258,92.194,132.394,92.121,132.242,92.025z"/>
					<path fill="#F1E09D" d="M57.802,57.176c0.527,0.823,1.025,1.883,1.2,1.422l0.029-0.541
						C58.46,57.787,58.087,57.483,57.802,57.176z"/>
					<path fill="#F1E09D" d="M98.144,78.63c-0.046-0.095-0.095-0.194-0.143-0.292c-0.291,0.09-0.563,0.174-0.811,0.25
						C97.479,78.602,97.803,78.615,98.144,78.63z"/>
					<path fill="#F1E09D" d="M99.918,76.587l0.858,0.892C100.606,77.233,100.334,76.94,99.918,76.587z"/>
					<path fill="#F1E09D" d="M157.919,103.748l0.941-0.361C157.84,102.911,158.142,103.459,157.919,103.748z"/>
					<path fill="#F1E09D" d="M19.376,28.422c-0.187,0.101-0.277,0.243-0.333,0.381c-0.009,0.162,0.072,0.353,0.169,0.539
						c0.232-0.16,0.573-0.233,0.772-0.31C20.148,28.937,20.06,28.784,19.376,28.422z"/>
					<path fill="#F1E09D" d="M130.936,99.977c0.388,0.081,0.597,0.035,0.663-0.111C131.205,99.775,130.949,99.782,130.936,99.977z"
						/>
					<path fill="#F1E09D" d="M20.279,31.065c0.09-0.055,0.093-0.137,0.152-0.202c-0.348-0.298-0.709-0.601-1.016-0.896
						c-0.223-0.259-0.186-0.423-0.204-0.625c-0.146,0.038-0.311,0.075-0.425,0.135c-0.118,0.059-0.24,0.12-0.069,0.303
						C18.954,30.1,19.436,30.524,20.279,31.065z"/>
					<path fill="#F1E09D" d="M176.858,102.485c-0.041-0.051-0.099-0.102-0.134-0.152
						C176.68,102.362,176.749,102.416,176.858,102.485z"/>
					<path fill="#F1E09D" d="M157.068,86.104c0.226,0.118,0.591,0.309,0.936,0.489C157.843,86.493,157.563,86.342,157.068,86.104z"
						/>
					<path fill="#F1E09D" d="M21.986,19.755C22.331,19.635,21.934,19.643,21.986,19.755L21.986,19.755z"/>
					<path fill="#F1E09D" d="M28.938,23.904c-0.006,0.099,0.05,0.232,0.277,0.471C29.01,24.132,28.931,23.985,28.938,23.904z"/>
					<path fill="#F1E09D" d="M35.727,38.435c0.012,0.01,0.021,0.018,0.035,0.029C35.833,38.391,35.817,38.403,35.727,38.435z"/>
					<path fill="#F1E09D" d="M23.206,20.147c-0.173-0.061-0.39-0.128-0.535-0.167c-0.144-0.038-0.285-0.068-0.422-0.09
						c0.085,0.031,0.194,0.065,0.334,0.103C22.743,20.032,22.946,20.083,23.206,20.147z"/>
					<path fill="#F1E09D" d="M22.569,19.682c0.256,0.041,0.458,0.073,0.65,0.103C23.119,19.62,22.936,19.517,22.569,19.682z"/>
					<path fill="#F1E09D" d="M21.476,19.89c0.208-0.054,0.481-0.041,0.772,0c-0.154-0.053-0.248-0.101-0.262-0.135
						C21.879,19.784,21.728,19.823,21.476,19.89z"/>
					<path fill="#F1E09D" d="M193.698,120.344c0.029,0.026,0.062,0.045,0.096,0.079C194.086,120.231,193.938,120.24,193.698,120.344
						z"/>
					<path fill="#F1E09D" d="M72.928,61.431c-0.025-0.011-0.043-0.009-0.067-0.019c0.02,0.019,0.044,0.043,0.063,0.061
						L72.928,61.431z"/>
					<path fill="#F1E09D" d="M74.831,62.308c-1.041-0.03-1.419-0.364-1.907-0.835l-0.151,1.456L74.831,62.308z"/>
					<path fill="#F1E09D" d="M145.533,98.511l-0.986-1.215c2.024-0.271,2.964,0.587,2.181-0.831
						c-1.197,2.039-5.049-2.095-6.277-0.11l-0.622-0.834c0.231,0.134,0.333,0.032,0.562,0.166c-1.126-1.77-2.006,0.945-3.935-0.484
						c-0.645-0.547-0.996-1.106-0.374-1.078l-1.882-0.378c-0.45-0.292-0.149-0.569,0.299-0.281l-2.554-1.168l0.051-0.047
						c-0.521,0.114-1.577,0.143-2.076,0.125c-0.475-0.613,0.428-0.029,0.4-0.354l-1.625-0.287c-0.28-0.785,1.12-0.643,2.025-0.069
						c-0.204-2.482-1.328-0.287-3.342-2.471l0.074-0.142c0.041-0.02-0.03-0.059-0.091-0.095c-0.054-0.034-0.038-0.033-0.061-0.051
						c-0.055-0.056-0.112-0.114-0.171-0.173l-0.022-0.017l0.026,0.008l0.202,0.098l0.05,0.024c0.035,0.024,0.177,0.072,0.136,0.087
						c-0.021,0.042-0.043,0.083-0.072,0.138l1.161,0.35c-0.086-0.567-0.317-0.938-0.632-1.258l0.112-0.175
						c0.064-0.022-0.1-0.082-0.147-0.121l-0.051-0.044l-0.193-0.17c-0.345-0.165-0.386-0.243-0.552-0.356
						c-0.143-0.108-0.29-0.221-0.445-0.339c-0.307-0.242-0.628-0.528-0.944-0.911c0.178,0.528,2.148,3.188,0.372,2.95
						c-0.357-0.356-0.891-0.698-1.912-0.704c0.338-0.7-0.553-0.917-1.582-1.365l0.525-0.882c-1.224-0.259-1.369,0.247-2.216,0.346
						c-1.169-0.682-1.069-1.504-1.061-2.231c-1.874-1.083,0.781,1.772-1.605,0.825c-1.443-1.133-2.769-1.308-4.962-1.737
						c-0.975-0.861,0.47-0.441,0.192-0.894l-1.355,0.208c-0.236-0.138-0.048-0.313,0.047-0.402c-0.98-0.146-0.514,0.842-1.958,0.42
						c-0.842,0.772-2.011-2.739-4.194-2.484c-0.277-0.446,0.463-0.426,0.51-0.82c-2.6-0.426-2.183-0.454-4.502-0.455l-1.28-1.344
						c0.824,1.211-1.032,1.211-2.633,1.151c0.25,0.51,0.46,0.955,0.628,1.202c0,0-0.569-0.157-1.139-0.314
						c-0.565-0.166-1.131-0.333-1.131-0.333c-0.175-0.268,0.176-0.434,0.688-0.597c-0.175-0.007-0.341-0.011-0.476-0.004
						c-0.57-0.69,0.051-0.95,0.814-1.135c0.165,0.29,0.322,0.591,0.472,0.889c0.767-0.235,1.536-0.561,1.683-1.098
						c-0.182,0.025-0.485-0.017-0.793-0.113c0.204-0.069,0.354-0.15,0.335-0.263c-0.025-0.121-0.336-0.045-0.781-0.005l0.009-1.144
						l-0.303,0.305l-2.405-1.883c-2.406-0.056-4.749,0.345-7.919-1.009c1.068-0.172,0.688-0.864,1.112-1.528
						c0.422,1.163,2.494,0.925,4.008,1.847c-0.785-0.492-0.417-0.746-0.141-0.765c0,0-0.806-0.167-1.593-0.359
						c-0.791-0.192-1.582-0.384-1.582-0.384c0.378-0.538-0.356-0.733-0.958-1.337c-0.034,0.695-0.654,0.605-1.437,0.314
						c-0.792-0.272-1.798-0.667-2.429-0.825c0.124-0.346,0.54-0.512,1.976,0.132c-0.6-0.698-1.287-0.589-1.935-0.551
						c-0.165,0.013-0.33,0.023-0.493,0.022l-0.122-0.003c-0.027,0.011-0.024-0.029-0.077,0.022l-0.058-0.01
						c-0.077-0.014-0.153-0.032-0.229-0.056c-0.303-0.095-0.598-0.277-0.868-0.63c0.324,0.191,0.47,0.341,0.685,0.276
						c-0.905-0.212-2.607-1.54-2.01-1.515l0.321,0.191c-2.051-1.47-6.46-4.325-7.264-3.798c0.042-0.108,0.866-0.687,1.092-0.746
						c0,0-1.358-0.022-2.716-0.045c-1.361-0.01-2.722-0.021-2.722-0.021c0.755-0.408,0.475-2.773,2.474-1.95
						c-0.446-0.429-1.001-0.956-2.216-1.447c0.285,0.323,0.251,1.494-0.26,1.238c-0.825-1.573-0.648-0.977-1.842-2.655
						c0.426,0.484-0.812,1.107-1.609,0.533c0.227-0.066,0.588-1.046,0.956-0.951l-2.686-0.36c0.625,0.157,0.645-0.789,0.378-1.378
						c0.081,0.338-1.736-1.195-2.341-1.458l0.704,0.811c-2.183-1.689-3.201-0.089-5.447-1.653c0.417-0.029,1.542-0.845,0.475-1.749
						c-0.874,0.167-4.034,0.964-6.343,0.049l-0.184-0.559l-1.79-0.672c1.518-0.174,5.353-0.063,7.249,0.28
						c-0.695-0.813,0-0.516-1.298-1.35c-0.261-0.588,0.984,0.04,1.371,0.278l-2.848-2.195c-0.286,0.71-2.695-0.912-2.935-0.314
						l3.67,1.533c-0.28,0.704-3.058,0.504-5.108-1.015c-0.37-0.609,1.159-0.847,1.255-1.084c-0.419,0.031-2.285-0.934-2.375-1.218
						l1.125,0.266c-1.017-1.028-2.486-0.451-3.449-2.032c-0.45-0.377-0.845-1.825-1.19-1.511c0.259,1.276-1.145,3.61-2.055,3.782
						c-0.144-0.167-2.039-2.472-2.346-3.247c-0.263-1.057,2.14-0.503,1.877-1.436c-0.077,0.076-0.256,0.093-0.445,0.083
						c-0.171,0.003-0.313,0.007-0.409-0.01c-0.193-0.366,0.578-0.395-0.102-0.772c-0.82,0.383-1.307-1.045-0.948,0.135
						c-1.006-0.459-0.612-0.652-1.466-1.247c-0.254,0.131-1.071,0.07-2.152-0.238c-1.035-0.292-2.496-0.861-3.339-1.351
						c0.5,0.101,0.851-0.015,0.987-0.063c-0.98-0.799-1.517-1.361-1.986-1.868c-0.474-0.512-0.882-0.965-1.727-1.665
						c0.435,0.083,0.487-0.218,1.958,0.504c-0.669-0.35-1.802-0.899-2.357-1.343c1.656,0.353,1.357,0.992,3.647,1.675
						c-1.647-0.691-3.316-1.844-5.155-3.013c-1.348-0.599-1.037-0.257-0.205,0.32c0.835,0.584,2.141,1.361,2.955,1.831
						c-0.843-0.341-1.769-0.747-2.771-1.229c-1.027-0.491-2.049-1.025-3.019-1.585c-1.966-1.129-3.727-2.37-4.965-3.49
						c-1.597-1.618,1.135,0.228,0.609-0.177c-0.895-1.186-2.184-2.277-3.056-3.169c-0.438-0.457-0.806-0.863-0.966-1.301
						c-0.071-0.225-0.116-0.446-0.018-0.729c0.076-0.282,0.418-0.626,0.881-0.73c0.986,0.036,1.496,0.459,1.837,0.77
						c0.346,0.331,0.521,0.651,0.997,0.861c-0.316,0.112-0.704,0.306-0.855,0.625c-0.139,0.312-0.121,0.573-0.126,0.768
						c0.003,0.403-0.015,0.642,0.291,1.086c0.003,0.021-0.166-0.796-0.146-0.83c0.525,0.681,1.552,1.754,1.588,2.007
						c0.065-0.019,0.018-0.122-0.035-0.263c0.04-0.086-0.006-0.245-0.094-0.471c-0.089-0.223-0.23-0.512-0.324-0.873
						c-0.037-0.18-0.082-0.383-0.021-0.59c0.05-0.209,0.228-0.384,0.449-0.472c0.928-0.273,1.978-0.003,3.034,0.288
						c1.064,0.322,2.176,0.796,3.319,1.411c-0.171-0.265-0.241-0.505-0.423-0.781c-0.071-0.122-0.255-0.33-0.344-0.425
						c-0.093-0.099-0.245-0.221-0.48-0.368l-0.717-0.115c-0.923-0.549-0.85-0.717-0.778-0.889c0.077-0.16,0.167-0.298-0.608-0.62
						c0.099-0.103,0.159-0.239,0.256-0.378c0.14-0.135,0.305-0.269,0.532-0.367c0.454-0.195,1.162-0.258,2.381,0.169l1.778,1.63
						c-0.451-0.481-2.055-1.122-2.124-0.746c0.056-0.271,1.257,0.347,2.286,0.849c1.034,0.489,1.875,0.844,1.485-0.058
						c0,0-0.598-0.397-1.196-0.794c-0.567-0.329-1.134-0.658-1.134-0.658c0.241-0.402,0.674-0.694,1.304-0.899
						c0.634-0.187,1.547-0.177,2.779,0.381c-0.972-0.927-1.09-0.92-1.278-0.964c-0.201-0.045-0.454-0.138-1.926-1.298
						c1.502,1.355,0.056,0.933-1.256,0.557c-0.656-0.185-1.324-0.4-1.392-0.197c-0.124,0.146,0.126,0.443,1.072,1.097
						c-1.553-1.15-2.305-1.383-3.065-1.588c-0.764-0.197-1.534-0.372-3.224-1.201c0.545,0.477,1.529,0.925-0.173,0.666
						c0.08,0.135,0.112,0.303,0.123,0.399c-0.062-0.017-0.083-0.023-0.136-0.038c0.05,0.021,0.089,0.037,0.139,0.057
						c0.013,0.067,0.023,0.081,0.051,0.02c0.564,0.211,1.104,0.471,1.493,0.741c0.238,0.526-0.322,0.695-0.604,0.86
						c-0.362,0.146-0.791,0.23-0.806,0.44c-0.846-0.202-0.266-0.423-1.094-0.83c0.008,0.01-0.017,0.665-0.029,0.653
						c-0.525-0.377-1.309-0.657-1.832-0.855c-0.529-0.208-0.809-0.401-0.478-0.792c0-0.024-1.128,0.322-1.133,0.355
						c-0.564-0.023-1.091,0.079-1.567,0.492c-0.244,0.208-0.44,0.541-0.507,0.798c-0.078,0.266-0.057,0.479,0.001,0.694
						c-0.326,0.456,1.092,1.878,0.277,1.036c0,0,0.188,0.486,0.469,0.958c0.265,0.468,0.594,0.94,0.594,0.939l-0.296-0.144
						c0.147,0.68,1.061,1.733,1.852,2.733c0.201,0.254,0.382,0.498,0.545,0.739c0.16,0.241,0.278,0.463,0.434,0.711
						c0.186,0.256,0.085,0.41-0.077,0.545c-0.131,0.047-0.048,0.187-0.083,0.28c-0.019,0.101-0.046,0.199-0.125,0.285
						c0.258,0.229,0.52,0.459,0.792,0.7c0.25,0.231,0.68,0.534,0.997,0.805c0.338,0.279,0.672,0.57,0.985,0.873
						c0.253,0.286,0.737,0.655,1.173,1.04c0,0-0.248-0.011-0.495-0.022c-0.121-0.003-0.241-0.007-0.331-0.009
						c-0.065,0.004-0.109,0.006-0.109,0.006c0.424,0.215,0.852,0.443,1.287,0.682c0.212,0.119,0.432,0.241,0.658,0.367l0.33,0.188
						l0.189,0.153c0.499,0.409,1.026,0.85,1.469,1.258c0.914,0.823,1.921,1.612,2.75,1.901c-0.16,0.292,0.309,0.857,1.149,1.555
						c0.413,0.351,1.017,0.708,1.62,1.096c0.563,0.378,1.151,0.774,1.75,1.177c1.161,0.796,2.322,1.62,3.411,2.336
						c0.532,0.362,1.042,0.709,1.513,1.03c0.181,0.129,0.355,0.254,0.52,0.372c0.128,0.095,0.246,0.188,0.354,0.279l0.415-0.428
						c1.13,0.835,2.301,1.453,3.856,2.236l0.206-0.48c1.454,0.509,2.952,2.413,4.928,3.633c-0.24,0.073-0.706-0.29-0.99-0.614
						c1.696,2.452,5.366,2.517,7.018,4.572c0.625,0.193,0.971,0.493,1.271,0.835c-0.049-0.031-0.098-0.052-0.144-0.063
						c0.05,0.04,0.13,0.093,0.212,0.146c0.186,0.221,0.371,0.458,0.586,0.692c-0.155-0.242-0.311-0.46-0.469-0.618
						c0.411,0.256,1.06,0.605,1.729,0.896l-0.031,0.603c0.052,0.027,0.093,0.049,0.147,0.078c0.486,0.545,0.611,0.104,0.512-0.429
						c0.351,0.126,0.685,0.222,0.969,0.258c0.02,1.012,1.733,0.798,1.9,1.968c0.646-0.094,3.203,1.7,4.013,1.157
						c-0.044,0.111,0.102,0.273-0.226,0.067c0.612,0.524,1.224,1.044,1.962,1.228l-0.07,0.72l1.934,0.239
						c0.671,0.905,0.915,1.329-0.237,1.163c2.543,0.762,1.883,0.888,4.103,1.458l-0.315,0.279c0.655,0.409,1.991,0.638,2.194,1.169
						c0.521,0.786,2.253,1.986,4.373,3.338c2.279,1.169,4.351,3.332,6.147,4.686c-0.027-1.74,1.468,1.653,2.183,0.726
						c0.053,0.446,0.492,0.95-0.282,0.85c2.14,0.864,2.68,2.258,4.535,2.13c0.046,0.469-0.685,0.25-0.59,0.565
						c0.196,0.021,0.782,0.07,0.881,0.393c0.093,0.319-0.44,0.117-0.83,0.08c2.038,1.133,2.809,0.176,3.486-0.751
						c0.779,1.047,1.319,1.287,2.428,0.996c0.186,0.528,0.604,1.204-0.734,0.652c0.691,0.426,4.122,2.819,4.632,2.01
						c0.114,0.333,0.972,0.591,1.211,0.592c1.584,0.898,1.688,1.049,3.315,1.787l-0.368-0.369c1.159-0.719,1.438,0.446,2.782,0.98
						l-0.092,0.089c2.548,2.276,1.452,0.286,3.905,2.652l0.179-0.747c0.994-1.301,2.144,2.156,4.104,2.467l-0.414-0.696
						c1.171-0.036,1.574,3.298,2.404,3.962c0.138,0.232-0.42,0.043-0.748-0.007c1.981,2.117,0.761-0.736,2.667-0.024
						c0.09,0.658-1.044,1.019,0.122,1.736c0.094,0.162,0.369,0.263,0.757,0.341c0.194,0.04,0.415,0.073,0.654,0.107
						c0.119,0.017,0.243,0.034,0.37,0.051l0.193,0.027c0.064,0.009,0.061-0.003,0.095-0.004L123.355,96l0.019-0.008
						c-0.006-0.015-0.112-0.058-0.061-0.066l0.188-0.078c1.167,0.285,2.428,0.692,2.979,1.627c-0.149-0.576-0.298-1.142,0.673-0.934
						c1.324,0.592,2.603,3.408,4.381,2.894c0.103,0.197,0.109,0.333,0.064,0.431c1.131,0.247,3.368,1.35,4.329,0.958
						c-0.367,2.979,6.794,1.855,5.609,4.202c0,0,0.782,0.355,1.564,0.709c0.778,0.363,1.574,0.687,1.574,0.687l-0.194,0.207
						c1.932,1.02,2.903,0.74,3.861,0.474c0.389,0.36-0.049,0.437-0.143,0.545c2.706,1.729,3.058,1.739,6.004,1.634l-0.072,0.862
						c0.849-0.144,3.681,2.932,6.902,3.274c-0.064,0.07-0.186,0.186-0.457,0.192c1.804,0.248,3.444,1.566,5.066,2.511
						c1.596,0.954,3.041,1.58,4.167,0.556l2.409,0.252c-2.697-1.333,0.854-0.923-0.116-1.811c1.135,0.306,2.501,1.922,1.115,1.499
						l-0.159-0.212c-0.504,0.548,0.305,1.037,1.209,1.445c0.912,0.388,1.897,0.741,1.695,1.168c1.409,0.464,2.791,0.975,4.155,1.506
						c0.681,0.271,1.358,0.541,2.034,0.81c0.67,0.275,1.326,0.557,2.117,0.781c3.023,0.955,6.094,1.908,9.122,2.686
						c0,0-0.203-0.283-0.405-0.566c-0.194-0.283-0.389-0.566-0.389-0.566s0.505,0.146,1.011,0.292
						c0.493,0.171,1.047,0.229,1.047,0.229c0.615,0.282,0.945,0.844-0.646,0.581c0.434,0.374,1.132,0.282,1.639,0.159
						c0.518-0.138,0.873-0.359,0.858-0.452c1.572,0.376,1.422,0.575,0.926,0.728c-0.489,0.149-1.313,0.248-0.813,0.304l1.319,0.058
						l-0.346-0.129c0.926-0.248,0.806-0.589,2.697-0.315c1.303,0.301,0.982,0.545,1.486,0.626c0.041,0.053,0.229,0.094,0.764,0.097
						l2.942,0.344c0,0-0.45-0.161-0.899-0.321c-0.436-0.167-0.872-0.333-0.872-0.333c0.229-0.029,0.5-0.019,0.753-0.001
						c0.128,0.01,0.247,0.02,0.354,0.028c0.101,0.004,0.146-0.025,0.199-0.035c0.184-0.068,0.134-0.106-0.731-0.381
						c0.333,0.112,0.685,0.19,1.077,0.189c0.194-0.009,0.396-0.021,0.604-0.106c0.2-0.07,0.435-0.234,0.533-0.472
						c0.176-0.47,0.088-0.875-0.013-1.278c-0.105-0.4-0.291-0.805-0.497-1.208c-0.394-0.797-0.98-1.641-1.532-2.364
						c-0.538-0.716-1.075-1.308-1.15-1.516c-2.113-1.525-3.62-2.744-5.481-4.355c0.372,0.469-0.146,0.894-1.467-0.282
						c0.855-0.18,0.172-0.917-0.604-1.631c-0.76-0.705-1.629-1.445-1.863-2.212c0.535,1.172-3.68-2.628-2.773-0.858
						c-0.991-0.88,0.224-0.421-0.397-1.262c-2.807-1.514-5.399-4.375-8.684-6.482c-0.14,0.09,0.254,0.658-0.562,0.365l-1.235-1.804
						c-0.676-0.376-1.088,0.314-1.938-0.915c0.09,0.216,0.223,0.542-0.229,0.289c-2.928-2.453-6.213-4.551-9.627-6.463
						c-3.39-1.95-6.717-4.009-9.967-6.104c0.854,0.61,0.229,0.294-0.478-0.083c0.44,0.275-0.099,0.139-0.056,0.266
						c0,0-0.677-0.444-1.353-0.888c-0.701-0.403-1.401-0.807-1.401-0.807c-0.611-0.125-3.141-1.494-3.488-1.564l0.926,0.442
						c-0.638-0.255-0.229-0.01,0.271,0.365c0.506,0.366,1.099,0.866,0.959,0.908c0.687,0.332,1.494,0.935,2.372,1.653
						c0.896,0.689,1.86,1.492,3.036,1.958c0.409,0.384-0.461-0.146-0.27,0.103c0.614,0.207,1.276,0.587,2.39,1.471l-0.159-0.046
						c3.286,2.226,4.551,3.408,7.981,6.283l-0.057-0.508c0.747,0.604,0.825,0.849,1.145,1.178c1.215,0.163-2.147-1.624-0.991-1.551
						c0.571,1.425,5.545,3.86,5.699,5.142c1.193,0.861-0.084-0.634,1.11,0.225l0.172,0.435l0.49-0.052
						c0.754,0.607,0.963,1.154,0.865,1.353c-0.174-0.159-0.573-0.34-0.787-0.472c0.839,0.978,2.906,1.993,3.193,2.329l-1.044-0.967
						c3.389,2.166,7.077,5.407,10.454,7.359l-0.103-0.348c2.552,1.524,1.745,1.646,4.318,3.554l-0.108-0.023
						c0.274,0.09,0.578,0.237,0.885,0.426c0.267,0.155,0.487,0.309,0.704,0.505c-0.325-0.102-0.244,0.128-0.234,0.305
						c0.02,0.186-0.034,0.314-0.373,0.216c0.794,0.38,1.124,0.555,1.424,0.634c0.33,0.108,0.606,0.099,1.911,0.694
						c0.011,0.008-0.415,0.141-0.425,0.131c0.994,0.439,1.403,0.546,2.561,1.52c-0.752-0.486-0.902-0.416-1.144-0.416
						c-0.229,0.016-0.559-0.053-1.338-0.485c-0.121,0.189-0.022,0.372,0.254,0.636c0.272,0.256,0.714,0.587,1.116,0.925
						c0.401,0.333,0.76,0.671,0.768,0.855c0.005,0.09-0.089,0.143-0.321,0.118c-0.24-0.021-0.652-0.15-1.189-0.411
						c0.612,0.564,1.063,0.895,1.495,1.085c0.419,0.216,0.86,0.173,0.881-0.084c0.041-0.455-0.564-1.005-0.049-0.606
						c0.366,0.054,1.073,0.493,1.713,1.104c0.309,0.302,0.614,0.652,0.695,0.989c0.09,0.362-0.212,0.507-0.496,0.485
						c-0.492,0.026-1.834-0.705-3.09-1.445c-1.283-0.738-2.419-1.437-3.039-1.559c0.143,0.038,0.004-0.102,0.139-0.066
						c-0.492-0.293-0.532-0.176-0.685-0.113c-0.136,0.067-0.393,0.079-0.929-0.34c0.19,0.482-0.063,0.414-0.228,0.396
						c-0.175-0.02-0.289,0.003-0.089,0.608l1.376,0.04c-0.28,0.086-0.416,0.458-0.874,0.644c-0.224,0.094-0.521,0.143-0.892,0.101
						c-0.19-0.026-0.375-0.055-0.615-0.147c-0.245-0.097-0.507-0.223-0.783-0.385c0.068-0.092,0.248-0.168,0.456-0.228
						c0.103-0.025,0.212-0.053,0.319-0.08c0.079-0.034,0.156-0.067,0.225-0.097c-0.142-0.117-0.22-0.152-0.367-0.198
						c-0.146-0.044-0.285-0.059-0.426-0.075c-0.281-0.032-0.572-0.067-0.898-0.335c0.016-0.274,0.183-0.378,0.439-0.388
						c0.129-0.005,0.28,0.014,0.447,0.047c0.145,0.023,0.405,0.104,0.485,0.106c0.452,0.071,1.065,0.21,1.097-0.211
						c-0.319-0.307-0.461-0.134-0.662-0.067s-0.34,0.054-0.379-0.563c0.019,0.389-0.049,0.563-0.243,0.583
						c-0.263-0.009-0.568-0.139-0.891-0.285c-0.653-0.293-1.337-0.647-2.109-0.292l0.1-0.645c-0.233,0.034-0.742,0.197-1.192,0.042
						c0,0,0.212-0.155,0.423-0.31c0.201-0.157,0.402-0.314,0.402-0.314c-0.601,0.187-1.188-0.158-1.722-0.535
						c-0.541-0.377-1.028-0.786-1.628-0.767c2.348,0.716,0.374,0.949,1.336,1.748c-1.64-0.041-2.033-0.609-2.359-1.241
						c-0.29-0.597-0.755-1.428-2.7-1.994c0.546,0.109,1.815,1.127,0.905,1.113c-0.688-0.408-1.567-1.02-1.896-1.529
						c-2.58-0.834,0.156,0.812-1.063,0.796c-0.587-1.114-1.363-0.152-2.584-0.314l0.237-0.665c-2.734-1.538-1.312,1.138-3.712-0.437
						c0,0,0.362-0.114,0.725-0.228c0.358-0.106,0.728-0.245,0.728-0.245c0,0-0.366-0.06-0.72-0.154
						c-0.357-0.086-0.715-0.173-0.715-0.173l0.575-0.642c-1.668-0.074-2.067-0.417-3.393-1.26c0.132,0.623-0.696,1.147-1.975,0.621
						c-0.688-0.779,0.759-0.437-1.07-1.12c0.592-0.252,1.257-0.592,1.765,0.376c0.174-0.187,0.577-0.252,0.75-0.435
						c-0.721-0.873-2.258-1.132-2.903-1.409c0.235,0.135,0.514,0.303,0.622,0.468l-3.015-0.204
						c-0.296-0.449,0.126-0.508,0.542-0.562c-0.564-0.171-1.075-0.022-1.883-0.321c0.456-0.473,0.67-1.082,1.893-0.829l-2.777-0.537
						c-0.057-0.325-0.977-1.283-0.559-1.343c-1.231-0.997-3.891-0.464-5.527-1.77c-0.145,0.071-0.386,0.091-0.812-0.004
						c-1.643-0.926-2.809-2.379-5.189-2.49l-0.646-1.631c-1.685-0.491,0.921,2.103-1.893,1.293
						c-2.024-0.512-0.264-1.265-0.773-1.878c-1.155,0.101-3.271,0.467-4.528-1.223C144.616,97.976,144.975,98.346,145.533,98.511z
						 M126.16,89.029c0.089,0.003,0.197,0.007,0.314,0.011c0.059,0.001,0.12,0.003,0.183,0.005l0.289,0.038l0.206,0.072l0.051,0.02
						c0.036,0.023,0.169,0.065,0.128,0.078l-0.05,0.109c0.271,0.07,0.487,0.193,0.507,0.436c-0.409,0.254-0.648,0.26-0.842,0.138
						l0.042-0.111c0.031-0.015-0.046-0.049-0.088-0.076c-0.033-0.021-0.031-0.024-0.049-0.038c-0.051-0.047-0.103-0.096-0.158-0.148
						C126.413,89.383,126.366,89.221,126.16,89.029z M95.935,75.991c0.382-0.057,0.76,0.257,1.122,0.734
						C96.68,76.596,96.294,76.369,95.935,75.991z M18.516,21.663c0,0.019,0.001,0.032,0.007,0.051
						c-0.52,0.168-0.668,0.346-0.624,0.294C17.938,21.966,18.194,21.789,18.516,21.663z M20.297,21.353
						c0.007-0.133-0.14-0.23-0.328-0.317c0.149,0.212-0.146,0.287-0.561,0.376C19.736,21.543,20.092,21.602,20.297,21.353z
						 M201.878,125.592l-0.55-0.179C202.192,125.386,202.029,125.481,201.878,125.592z"/>
					<path fill="#F1E09D" d="M99.702,76.819c0.05,0.16,0.019,0.292-0.019,0.422C99.885,77.212,99.951,77.091,99.702,76.819z"/>
					<path fill="#F1E09D" d="M157.744,103.815c0.018,0.015,0.039,0.022,0.057,0.036c0.052-0.028,0.089-0.064,0.118-0.104
						L157.744,103.815z"/>
					<path fill="#F1E09D" d="M43.335,41.348c0.068,0.149,0.22,0.387,0.264,0.55c0.049-0.049,0.057-0.122-0.002-0.227
						c-0.027-0.051-0.08-0.117-0.136-0.18C43.431,41.446,43.39,41.399,43.335,41.348z"/>
					<path fill="#F1E09D" d="M27.812,19.251c0.004,0.004-0.107-0.02-0.235-0.016c-0.101,0.032-0.235,0.074-0.37,0.117
						c-0.268,0.082-0.536,0.163-0.536,0.163c0.61-0.052,1.063,0.203,1.6,0.453c-0.153-0.164-0.395-0.365-0.531-0.509
						C27.599,19.31,27.521,19.171,27.812,19.251z"/>
					<path fill="#F1E09D" d="M44.552,30.998c0.166-0.068,0.355,0.124,0.525,0.057l-0.033-0.508
						C44.264,30.28,43.798,30.488,44.552,30.998z"/>
					<path fill="#F1E09D" d="M32.775,23.988c0.946,1.118,1.529,1.021,2.415,1.134c-0.058-0.015-0.109-0.023-0.178-0.055
						C34.351,23.672,33.496,23.821,32.775,23.988z"/>
					<path fill="#F1E09D" d="M35.401,25.158c0.279,0.045,0.583,0.115,0.917,0.259C36.093,24.863,35.855,25.176,35.401,25.158z"/>
					<path fill="#F1E09D" d="M21.439,20.604c0.532,0.163-1.012-1.01-0.476-0.729c-0.452-0.54-0.527-0.111-0.42,0.29
						C20.657,20.574,20.95,20.955,21.439,20.604z"/>
					<path fill="#F1E09D" d="M36.158,27.782l-1.277-1.432c0,0,0.076,0.228,0.151,0.456c0.084,0.229,0.169,0.458,0.169,0.458
						L36.158,27.782z"/>
					<path fill="#F1E09D" d="M28.632,25.036l1.705,0.646c-0.225-0.205-0.171-0.282-0.047-0.325
						C29.406,25.122,28.229,24.693,28.632,25.036z"/>
					<path fill="#F1E09D" d="M30.29,25.356c0.463,0.123,0.855,0.194,0.907,0.04C30.971,25.358,30.496,25.288,30.29,25.356z"/>
					<path fill="#F1E09D" d="M34.762,27.653c0,0-0.163-0.121-0.333-0.23c-0.171-0.111-0.341-0.223-0.341-0.223l-1.052-0.375
						c0,0,0.438,0.207,0.876,0.413C34.346,27.441,34.762,27.653,34.762,27.653z"/>
					<path fill="#F1E09D" d="M24.409,29.639c0,0,0.36,0.307,0.719,0.613c0.374,0.307,0.747,0.613,0.747,0.613
						c0.69,0.373,0.738,0.261,0.106-0.225C25.336,30.21,24.762,29.734,24.409,29.639z"/>
					<path fill="#F1E09D" d="M27.891,29.977c-0.405-0.088-1.021-0.43-1.826-0.801l3.516,1.989c0,0-0.421-0.291-0.842-0.582
						C28.314,30.28,27.891,29.977,27.891,29.977z"/>
					<path fill="#F1E09D" d="M30.92,32.813c0.976,0.544,3.439,2.131,2.38,1.237C32.419,33.601,30.909,32.483,30.92,32.813z"/>
					<polygon fill="#F1E09D" points="43.87,44.17 43.551,43.953 42.911,44.942 					"/>
					<path fill="#F1E09D" d="M62.07,53.24c-1.342-1.228-0.731,0.331-1.894-0.854c-0.496-0.017,0.952,0.968,0.467,0.915
						C61.696,53.675,62.083,54.124,62.07,53.24z"/>
					<path fill="#F1E09D" d="M60.643,53.3c-0.168-0.061-0.351-0.119-0.553-0.168C60.389,53.249,60.542,53.287,60.643,53.3z"/>
					<polygon fill="#F1E09D" points="153.279,84.15 152.223,83.658 152.891,84 					"/>
					<path fill="#F1E09D" d="M151.194,83.308l-0.228-0.153c0,0-0.653-0.258-0.653-0.257
						C150.553,83.007,151.019,83.214,151.194,83.308z"/>
					<path fill="#F1E09D" d="M124.204,85.757l-0.191,0.187c0.041,0.319,0.275,0.454,0.746,0.725L124.204,85.757z"/>
					<polygon fill="#F1E09D" points="137.854,93.861 137.628,93.718 137.605,94.822 					"/>
					<path fill="#F1E09D" d="M150.004,98.262c-0.456-0.272-1.127-0.324-1.57-0.61C149.532,98.003,149.613,99.468,150.004,98.262z"/>
				</g>
			</g>
		</g>
	</g>
	<g id="craters">
		<path id="_x39_" fill="#FFFFFF" d="M136.832,65.929c-1.511,0-1.511,2.342,0,2.342S138.343,65.929,136.832,65.929z"/>
		<path id="_x38_" fill="#FFFFFF" d="M121.94,68.759c-0.959,0-0.959,1.486,0,1.486C122.898,70.245,122.898,68.759,121.94,68.759z"/>
		<path id="_x37_" fill="#FFFFFF" d="M100.322,87.112c-1.452,0-1.452,2.252,0,2.252S101.774,87.112,100.322,87.112z"/>
		<path id="_x36_" fill="#FFFFFF" d="M111.371,53.665c-1.22,0-1.22,1.891,0,1.891S112.591,53.665,111.371,53.665z"/>
		<path id="_x35_" fill="#FFFFFF" d="M128.334,76.945c0-1.001,0.835-1.836,1.836-1.836c0.647,0,1.222,0.353,1.55,0.87
			c0.378-1.316-0.314-2.986-2.094-2.986c-2.418,0-2.838,3.085-1.27,4.171C128.348,77.091,128.334,77.02,128.334,76.945z"/>
		<path id="_x34_" fill="#FFFFFF" d="M131.067,60.921c-1.634,0-1.634-2.533,0-2.533c0.902,0,1.304,0.773,1.209,1.465
			c0.223-1.02-0.337-2.24-1.689-2.24c-2.323,0-2.323,3.603,0,3.603c0.645,0,1.103-0.281,1.39-0.681
			C131.772,60.766,131.47,60.921,131.067,60.921z"/>
		<path id="_x33_" fill="#FFFFFF" d="M105.139,98.085c0-1.04,0.868-1.908,1.909-1.908c0.795,0,1.485,0.508,1.769,1.211
			c0-0.008,0.003-0.015,0.003-0.023c0-1.228-1.025-2.252-2.252-2.252c-1.229,0-2.252,1.024-2.252,2.252
			c0,0.929,0.588,1.74,1.406,2.08C105.364,99.097,105.139,98.614,105.139,98.085z"/>
		<path id="_x32_" fill="#FFFFFF" d="M88.552,85.88c0.264,0,0.438,0.13,0.542,0.303c0.178-0.769-0.239-1.699-1.263-1.699
			c-1.743,0-1.743,2.702,0,2.702c0.139,0,0.263-0.022,0.38-0.054C87.711,86.829,87.819,85.88,88.552,85.88z"/>
		<path id="_x31_" fill="#FFFFFF" d="M102.724,65.087c0.426,0,0.771,0.124,1.039,0.323c-0.248-0.801-0.91-1.455-2-1.455
			c-2.793,0-2.813,4.291-0.065,4.362C100.515,67.45,100.856,65.087,102.724,65.087z"/>
	</g>
</g>
<g id="stars">
	<g id="star">
		<polygon fill="#C29CFF" stroke="#75B6FC" stroke-miterlimit="10" points="91.72,139.886 92.892,160.807 113.813,161.979 
			92.892,163.15 91.72,184.071 90.548,163.15 69.627,161.979 90.548,160.807 		"/>
		<g filter="url(#AI_GaussianBlur_4)">
			<circle fill="#C29CFF" cx="91.72" cy="161.979" r="7.69"/>
			<circle fill="none" stroke="#75B6FC" stroke-miterlimit="10" cx="91.72" cy="161.979" r="7.69"/>
		</g>
	</g>
	<g id="star_1_">
		<polygon fill="#9BB7CC" stroke="#75B6FC" stroke-miterlimit="10" points="231.72,30.123 233.369,59.566 262.813,61.215 
			233.369,62.865 231.72,92.308 230.07,62.865 200.627,61.215 230.07,59.566 		"/>
		<g opacity="0.9" filter="url(#AI_GaussianBlur_4)">
			<circle fill="#9BB7CC" cx="231.72" cy="61.215" r="10.823"/>
			<circle fill="none" stroke="#75B6FC" stroke-miterlimit="10" cx="231.72" cy="61.215" r="10.823"/>
		</g>
	</g>
	<g id="random_stars">
		<path fill="#75B6FC" d="M33.72,105.775c-4.131,0-4.131,6.406,0,6.406S37.851,105.775,33.72,105.775z"/>
		<path fill="#75B6FC" d="M261.72,132.416c-2.215,0-4.063,1.848-4.063,4.063s1.848,4.063,4.063,4.063s4.063-1.848,4.063-4.063
			S263.935,132.416,261.72,132.416z"/>
		<path fill="#75B6FC" d="M222.72,159.369c-2.721,0-2.721,4.219,0,4.219S225.44,159.369,222.72,159.369z"/>
		<path fill="#75B6FC" d="M276.22,183.588c-3.729,0-3.729,5.781,0,5.781S279.948,183.588,276.22,183.588z"/>
		<path fill="#75B6FC" d="M139.22,136.838c-0.895,0-1.641,0.746-1.641,1.641s0.746,1.641,1.641,1.641s1.641-0.746,1.641-1.641
			S140.114,136.838,139.22,136.838z"/>
		<path fill="#75B6FC" d="M113.72,267.471c-0.655,0-0.655,1.016,0,1.016S114.375,267.471,113.72,267.471z"/>
		<path fill="#75B6FC" d="M61.72,245.393c-3.98,0-3.98,6.172,0,6.172S65.7,245.393,61.72,245.393z"/>
		<path fill="#877AE5" d="M41.22,170.533c-0.788,0-1.445,0.657-1.445,1.445s0.657,1.445,1.445,1.445s1.445-0.657,1.445-1.445
			S42.008,170.533,41.22,170.533z"/>
		<path fill="#877AE5" d="M145.72,188.572c-1.813,0-1.813,2.813,0,2.813S147.533,188.572,145.72,188.572z"/>
		<path fill="#877AE5" d="M173.349,25.767c-0.3-1.643-2.244-2.452-3.595-1.441c-0.559,0.418-0.948,0.918-0.948,1.653
			c0,0.326,0.087,0.598,0.22,0.843c0.173,0.981,1.253,1.741,2.194,1.741C172.75,28.563,173.604,27.161,173.349,25.767z"/>
		<path fill="#877AE5" d="M270.72,18.541c-1.209,0-1.209,1.875,0,1.875S271.929,18.541,270.72,18.541z"/>
		<path fill="#877AE5" d="M257.678,74.236c-0.229-0.951-1.688-0.951-1.916,0c-0.081,0.338-0.001,0.658,0.054,0.992
			c0.149,0.899,1.659,0.899,1.809,0C257.679,74.894,257.759,74.574,257.678,74.236z"/>
		<path fill="#877AE5" d="M256.72,86.369c-1.149,0-2.109,0.959-2.109,2.109s0.96,2.109,2.109,2.109s2.109-0.959,2.109-2.109
			S257.869,86.369,256.72,86.369z"/>
		<path fill="#EAEA8C" d="M206.22,178.713c-2.922,0-2.922,4.531,0,4.531S209.142,178.713,206.22,178.713z"/>
		<path fill="#EAEA8C" d="M165.72,274.182c-2.317,0-2.317,3.594,0,3.594S168.037,274.182,165.72,274.182z"/>
		<path fill="#EAEA8C" d="M95.731,208.785c-1.129-0.661-2.891-0.573-3.78,0.487c-0.085,0.103-0.171,0.204-0.256,0.307
			c-1.006,1.199-1.006,2.6,0,3.799c0.085,0.103,0.171,0.204,0.256,0.307c0.697,0.831,2.035,1.077,3.035,0.802
			c1.338-0.368,2.29-1.621,2.29-3.008C97.276,210.379,96.68,209.341,95.731,208.785z"/>
		<path fill="#EAEA8C" d="M31.22,279.268c-1.562,0-1.562,2.422,0,2.422S32.782,279.268,31.22,279.268z"/>
		<path fill="#EAEA8C" d="M17.72,229.838c-2.116,0-2.116,3.281,0,3.281S19.836,229.838,17.72,229.838z"/>
		<path fill="#EAEA8C" d="M50.72,217.26c-0.937,0-1.719,0.782-1.719,1.719s0.782,1.719,1.719,1.719s1.719-0.782,1.719-1.719
			S51.657,217.26,50.72,217.26z"/>
		<path fill="#EAEA8C" d="M53.72,130.635c-3.023,0-3.023,4.688,0,4.688S56.743,130.635,53.72,130.635z"/>
		<path fill="#EAEA8C" d="M27.22,144.429c-0.064,0-0.064,0.1,0,0.1S27.284,144.429,27.22,144.429z"/>
		<path fill="#EAEA8C" d="M27.782,144.252c-0.16-0.025-0.32-0.05-0.479-0.075c-0.504-0.08-0.504,0.682,0,0.603
			c0.16-0.025,0.319-0.05,0.479-0.075C28.007,144.669,28.007,144.288,27.782,144.252z"/>
		<path fill="#EAEA8C" d="M31.72,57.869c-2.721,0-2.721,4.219,0,4.219S34.44,57.869,31.72,57.869z"/>
		<path fill="#EAEA8C" d="M47.22,75.369c-2.721,0-2.721,4.219,0,4.219S49.94,75.369,47.22,75.369z"/>
		<path fill="#EA938C" d="M99.22,11.627c-0.453,0-0.453,0.703,0,0.703S99.673,11.627,99.22,11.627z"/>
		<path fill="#EA938C" d="M100.17,11.2c-0.505-0.139-1.325,0.072-1.516,0.623c-0.229,0.667-0.169,1.388,0.503,1.781
			c0.733,0.43,1.706,0.033,1.932-0.786C101.279,12.127,100.861,11.39,100.17,11.2z"/>
		<path fill="#EA938C" d="M185.72,76.314c-4.081,0-4.081,6.328,0,6.328S189.801,76.314,185.72,76.314z"/>
		<path fill="#EA938C" d="M185.22,144.807c-0.964,0-1.432,1.073-0.955,1.817c0.073,0.455,0.455,0.832,0.955,0.832
			s0.882-0.376,0.955-0.832C186.651,145.879,186.184,144.807,185.22,144.807z"/>
		<path fill="#EA938C" d="M274.72,117.189c-1.662,0-1.662,2.578,0,2.578S276.382,117.189,274.72,117.189z"/>
		<path fill="#EA938C" d="M125.72,242.572c-1.813,0-1.813,2.813,0,2.813S127.533,242.572,125.72,242.572z"/>
	</g>
</g>
<g id="sun">
	<g id="solar_flare" opacity="0.8" filter="url(#AI_GaussianBlur_4)">
		<path fill="#FFCE00" d="M284.476,226.601c-26.38,8.063-26.437,9.181-13.279,20.118c-13.38-8.732-13.543-7.644-9.036,0.252
			c-4.942-5.752-5.212-4.697-4.458-0.317c-1.393-2.308-1.76-1.29-2.186-0.223c-0.543,1.26-1.18,2.552-1.725,3.673
			c-0.886,1.38-1.679,2.586,2.123,2.713c-5.529,2.192-6.467,3.304,5.156,6.291c-13.627-0.868-14.696,0.137-5.17,26.199
			c-11.785-24.166-12.974-23.275-15.489-13.101c0.026-8.522-1.272-7.76-3.876-4.568c-0.091-1.804-1.485-1.177-2.924-0.627
			c-1.601,0.614-3.252,1.136-2.043,2.166c-4.603-0.184-6.345,0.14,1.705,7.994c-11.608-7.417-13.424-7.305-22.328,12.77
			c5.444-20.074,3.854-20.159-3.254-14.978c3.979-5.52,2.441-5.77-1.003-5.463c0.438-0.96-1.035-1.361-1.579,0.447
			c-2.321-2.76-3.714-3.309-4.972,3.619c-1.446-8.155-2.753-8.838-9.831,7.193c4.563-17.52,3.354-18.324-18.142-16.993
			c19.186-3.059,18.085-3.981,9.389-7.373c6.614,1.444,5.633,0.416,3.14-1.967c0.528,0.083-0.434-1.209-1.282-1.307
			c-0.891-2.594-1.669-3.993-5.364,0.59c2.342-7.48,1.768-8.978-13.276,1.749c14.111-13.803,13.751-15.381-0.032-24.555
			c13.302,5.949,13.177,4.305,10.082-1.353c3.095,2.313,3.22,0.665,2.334-0.338c0.849-0.629,1.199-1.82,0.634-2.17
			c-0.563-0.353-2.041,0.137-5.173,1.9c7.184-6.597,7.747-8.084-16.986-6.442c25.932-4.436,26.568-5.745,18.626-18.43
			c9.682,9.993,10.783,8.61,10.785,2.755c2.031,3.348,2.961,2.225,2.293,0.58c1.518,0.445,2.687-0.335,2.391-0.986
			c-0.296-0.65-2.056-1.172-6.325-1.669c11.488-1.128,12.93-2.158,0.756-26.859c15.142,23.126,16.671,22.58,19.617,12.536
			c0.103,2.214,0.294,3.834,0.567,4.986c0.276,1.152,0.637,1.838,0.749,2.063c1.216,0.803,2.428,0.12,1.531-2.958
			c2.78,3.289,4.349,3.098,2.658-2.807c5.099,5.591,6.938,5.467,9.938-2.29c0.69,7.757,2.481,7.881,4.554,1.955
			c-0.335,5.045,0.999,5.792,3.421,3.602c-1.287,0.775-1.052-0.12-0.944-1.598c0.047-1.432-0.032-3.448-0.284-6.161
			c4.185,11.652,5.636,12.098,27.572-14.204c-19.115,27.334-17.745,27.921-5.925,26.01c-9.171,3.216-7.889,3.935-3.012,4.687
			c-2.418,0.805-1.238,1.642,0.837-1.483c-0.517,2.283,0.096,3.839,1.037,3.463c0.944-0.38,2.22-2.689,4.238-7.786
			c-2.014,12.2-1.057,13.247,27.033-2.415c-26.333,17.867-25.53,19.02-13.57,22.523c-10.487-1.118-9.819,0.112-5.486,3.704
			c-3.065-0.876-2.49,0.619-1.027,0.668c-0.433,1.272-0.392,2.545,0.413,2.821c0.806,0.276,2.371-0.44,5.33-2.664
			C257.971,230.217,258.096,231.864,284.476,226.601z"/>
	</g>
	<g id="solar_circle">
		<circle fill="#FFE000" cx="218.553" cy="231.979" r="26.501"/>
		<g>
			<path fill="#FCCCB9" d="M243.554,231.979c-0.152,11.885-8.386,21.935-19.977,24.499c-11.633,2.573-23.674-4.188-28.184-15.038
				c-4.568-10.991-0.33-23.81,9.437-30.365c9.914-6.653,23.315-4.856,31.628,3.456C241.067,219.14,243.471,225.518,243.554,231.979
				c0.024,1.934,3.025,1.936,3,0c-0.14-10.87-6.337-20.706-16.18-25.383c-9.888-4.698-21.611-2.812-29.956,4.054
				c-8.454,6.956-11.639,18.685-8.776,29.093c2.845,10.339,11.946,18.106,22.414,19.869c16.94,2.852,32.28-10.724,32.498-27.633
				C246.579,230.043,243.578,230.045,243.554,231.979z"/>
		</g>
	</g>
</g>
</svg>
